<svg xmlns="http://www.w3.org/2000/svg" version="1.1"  xmlns:xlink="http://www.w3.org/1999/xlink" xmlns:svgjs="http://svgjs.dev/svgjs" viewBox="0 0 1200 1200" ><defs><filter id="nnnoise-filter" x="-20%" y="-20%" width="140%" height="140%" filterUnits="objectBoundingBox" primitiveUnits="userSpaceOnUse" color-interpolation-filters="linearRGB"><feTurbulence type="fractalNoise" baseFrequency="0.103" numOctaves="4" seed="15" stitchTiles="stitch" x="0%" y="0%" width="100%" height="100%" result="turbulence"></feTurbulence><feSpecularLighting surfaceScale="13" specularConstant="0.9" specularExponent="20" lighting-color="hsl(23, 0%, 100%)" x="0%" y="0%" width="100%" height="100%" in="turbulence" result="specularLighting"><feDistantLight azimuth="3" elevation="91"></feDistantLight></feSpecularLighting></filter></defs><rect x="0" y="0" style="fill:#3C4258" width="1200" height="1200" /><rect x="0" y="0" filter="url(#nnnoise-filter)" style="fill:#3C4258" width="1200" height="1200" /><circle cx="659" cy="353" r="2" fill-opacity="1" fill="#ffffff" /><circle cx="608" cy="44" r="2" fill-opacity="1" fill="#ffffff" /><circle cx="204" cy="578" r="59" fill="#E0EEEE" stroke="#f3f3f3" stroke-width="1" /><circle cx="923" cy="448" r="2" fill-opacity="1" fill="#ffffff" /><circle cx="52" cy="449" r="3" fill-opacity="1" fill="#ffffff" /><circle cx="1142" cy="434" r="2" fill-opacity="1" fill="#ffffff" /><path stroke="#434343" stroke-width="0" fill="#8CB1DE" d="M 0 1079.0 c 74 15 126 18 237 -1 60 -9 144 -18 241 -6 73 -9 120 14 228 -10 71 -20 146 -4 236 -11 60 -17 146 13 238 2 63 19 149 -15 238 -18 70 -17 128 7 256 -12 74 -1 131 -14 243 -10 72 -6 133 -13 254 -20 76 -19 127 -13 220 -8 64 3 124 19 253 -19 66 -5 144 -11 233 1 76 -3 127 -17 240 -19 72 7 125 -19 238 -13 75 -9 138 10 236 -14 75 -11 120 14 226 6 l -40 1200 H 0 Z" /><path stroke="#434343" stroke-width="0" fill="#8CB1DE" d="M 0 1079.0 c 74 15 126 18 237 -1 60 -9 144 -18 241 -6 73 -9 120 14 228 -10 71 -20 146 -4 236 -11 60 -17 146 13 238 2 63 19 149 -15 238 -18 70 -17 128 7 256 -12 74 -1 131 -14 243 -10 72 -6 133 -13 254 -20 76 -19 127 -13 220 -8 64 3 124 19 253 -19 66 -5 144 -11 233 1 76 -3 127 -17 240 -19 72 7 125 -19 238 -13 75 -9 138 10 236 -14 75 -11 120 14 226 6 l -40 1200 H 0 Z" /><path stroke="#434343" stroke-width="0" fill="#927E77" d="M 0 1212.0 c 78 14 125 -3 250 -5 69 5 130 17 221 9 79 -20 147 -14 246 8 73 -7 148 -11 243 3 73 13 148 2 248 -17 77 -11 126 5 255 -7 63 -5 139 17 249 -3 65 -12 133 -7 222 -11 73 3 121 3 259 1 65 -12 126 0 251 1 75 14 126 10 240 -15 64 8 134 5 223 -13 63 13 131 -10 221 3 77 10 124 -5 235 -9 75 14 121 5 252 -20 67 0 125 16 247 0 l -40 1200 H 0 Z" /><circle cx="238" cy="69" r="2000" stroke-width="3" stroke-dasharray="0px 0px" fill="none" stroke="#feffe6" stroke-opacity="100%" opacity="98%"></circle><circle cx="238" cy="69" r="1979" stroke-width="3" stroke-dasharray="0px 0px" fill="none" stroke="#feffe6" stroke-opacity="100%" opacity="98%"></circle><circle cx="238" cy="69" r="1958" stroke-width="3" stroke-dasharray="0px 0px" fill="none" stroke="#feffe6" stroke-opacity="100%" opacity="98%"></circle><circle cx="238" cy="69" r="1937" stroke-width="3" stroke-dasharray="0px 0px" fill="none" stroke="#feffe6" stroke-opacity="100%" opacity="98%"></circle><circle cx="238" cy="69" r="1916" stroke-width="3" stroke-dasharray="0px 0px" fill="none" stroke="#feffe6" stroke-opacity="100%" opacity="98%"></circle><circle cx="238" cy="69" r="1895" stroke-width="3" stroke-dasharray="0px 0px" fill="none" stroke="#feffe6" stroke-opacity="100%" opacity="98%"></circle><circle cx="238" cy="69" r="1874" stroke-width="3" stroke-dasharray="0px 0px" fill="none" stroke="#feffe6" stroke-opacity="100%" opacity="98%"></circle><circle cx="238" cy="69" r="1853" stroke-width="3" stroke-dasharray="0px 0px" fill="none" stroke="#feffe6" stroke-opacity="100%" opacity="98%"></circle><circle cx="238" cy="69" r="1832" stroke-width="3" stroke-dasharray="0px 0px" fill="none" stroke="#feffe6" stroke-opacity="100%" opacity="98%"></circle><circle cx="238" cy="69" r="1811" stroke-width="3" stroke-dasharray="0px 0px" fill="none" stroke="#feffe6" stroke-opacity="100%" opacity="98%"></circle><circle cx="238" cy="69" r="1790" stroke-width="3" stroke-dasharray="0px 0px" fill="none" stroke="#feffe6" stroke-opacity="100%" opacity="98%"></circle><circle cx="238" cy="69" r="1769" stroke-width="3" stroke-dasharray="0px 0px" fill="none" stroke="#feffe6" stroke-opacity="100%" opacity="98%"></circle><circle cx="238" cy="69" r="1748" stroke-width="3" stroke-dasharray="0px 0px" fill="none" stroke="#feffe6" stroke-opacity="100%" opacity="98%"></circle><circle cx="238" cy="69" r="1727" stroke-width="3" stroke-dasharray="0px 0px" fill="none" stroke="#feffe6" stroke-opacity="100%" opacity="98%"></circle><circle cx="238" cy="69" r="1706" stroke-width="3" stroke-dasharray="0px 0px" fill="none" stroke="#feffe6" stroke-opacity="100%" opacity="98%"></circle><circle cx="238" cy="69" r="1685" stroke-width="3" stroke-dasharray="0px 0px" fill="none" stroke="#feffe6" stroke-opacity="100%" opacity="98%"></circle><circle cx="238" cy="69" r="1664" stroke-width="3" stroke-dasharray="0px 0px" fill="none" stroke="#feffe6" stroke-opacity="100%" opacity="98%"></circle><circle cx="238" cy="69" r="1643" stroke-width="3" stroke-dasharray="0px 0px" fill="none" stroke="#feffe6" stroke-opacity="100%" opacity="98%"></circle><circle cx="238" cy="69" r="1622" stroke-width="3" stroke-dasharray="0px 0px" fill="none" stroke="#feffe6" stroke-opacity="100%" opacity="98%"></circle><circle cx="238" cy="69" r="1601" stroke-width="3" stroke-dasharray="0px 0px" fill="none" stroke="#feffe6" stroke-opacity="100%" opacity="98%"></circle><circle cx="238" cy="69" r="1580" stroke-width="3" stroke-dasharray="0px 0px" fill="none" stroke="#feffe6" stroke-opacity="100%" opacity="98%"></circle><circle cx="238" cy="69" r="1559" stroke-width="3" stroke-dasharray="0px 0px" fill="none" stroke="#feffe6" stroke-opacity="100%" opacity="98%"></circle><circle cx="238" cy="69" r="1538" stroke-width="3" stroke-dasharray="0px 0px" fill="none" stroke="#feffe6" stroke-opacity="100%" opacity="98%"></circle><circle cx="238" cy="69" r="1517" stroke-width="3" stroke-dasharray="0px 0px" fill="none" stroke="#feffe6" stroke-opacity="100%" opacity="98%"></circle><circle cx="238" cy="69" r="1496" stroke-width="3" stroke-dasharray="0px 0px" fill="none" stroke="#feffe6" stroke-opacity="100%" opacity="98%"></circle><circle cx="238" cy="69" r="1475" stroke-width="3" stroke-dasharray="0px 0px" fill="none" stroke="#feffe6" stroke-opacity="100%" opacity="98%"></circle><circle cx="238" cy="69" r="1454" stroke-width="3" stroke-dasharray="0px 0px" fill="none" stroke="#feffe6" stroke-opacity="100%" opacity="98%"></circle><circle cx="238" cy="69" r="1433" stroke-width="3" stroke-dasharray="0px 0px" fill="none" stroke="#feffe6" stroke-opacity="100%" opacity="98%"></circle><circle cx="238" cy="69" r="1412" stroke-width="3" stroke-dasharray="0px 0px" fill="none" stroke="#feffe6" stroke-opacity="100%" opacity="98%"></circle><circle cx="238" cy="69" r="1391" stroke-width="3" stroke-dasharray="0px 0px" fill="none" stroke="#feffe6" stroke-opacity="100%" opacity="98%"></circle><circle cx="238" cy="69" r="1370" stroke-width="3" stroke-dasharray="0px 0px" fill="none" stroke="#feffe6" stroke-opacity="100%" opacity="98%"></circle><circle cx="238" cy="69" r="1349" stroke-width="3" stroke-dasharray="0px 0px" fill="none" stroke="#feffe6" stroke-opacity="100%" opacity="98%"></circle><circle cx="238" cy="69" r="1328" stroke-width="3" stroke-dasharray="0px 0px" fill="none" stroke="#feffe6" stroke-opacity="100%" opacity="98%"></circle><circle cx="238" cy="69" r="1307" stroke-width="3" stroke-dasharray="0px 0px" fill="none" stroke="#feffe6" stroke-opacity="100%" opacity="98%"></circle><circle cx="238" cy="69" r="1286" stroke-width="3" stroke-dasharray="0px 0px" fill="none" stroke="#feffe6" stroke-opacity="100%" opacity="98%"></circle><circle cx="238" cy="69" r="1265" stroke-width="3" stroke-dasharray="0px 0px" fill="none" stroke="#feffe6" stroke-opacity="100%" opacity="98%"></circle><circle cx="238" cy="69" r="1244" stroke-width="3" stroke-dasharray="0px 0px" fill="none" stroke="#feffe6" stroke-opacity="100%" opacity="98%"></circle><circle cx="238" cy="69" r="1223" stroke-width="3" stroke-dasharray="0px 0px" fill="none" stroke="#feffe6" stroke-opacity="100%" opacity="98%"></circle><circle cx="238" cy="69" r="1202" stroke-width="3" stroke-dasharray="0px 0px" fill="none" stroke="#feffe6" stroke-opacity="100%" opacity="98%"></circle><circle cx="238" cy="69" r="1181" stroke-width="3" stroke-dasharray="0px 0px" fill="none" stroke="#feffe6" stroke-opacity="100%" opacity="98%"></circle><circle cx="238" cy="69" r="1160" stroke-width="3" stroke-dasharray="0px 0px" fill="none" stroke="#feffe6" stroke-opacity="100%" opacity="98%"></circle><circle cx="238" cy="69" r="1139" stroke-width="3" stroke-dasharray="0px 0px" fill="none" stroke="#feffe6" stroke-opacity="100%" opacity="98%"></circle><circle cx="238" cy="69" r="1118" stroke-width="3" stroke-dasharray="0px 0px" fill="none" stroke="#feffe6" stroke-opacity="100%" opacity="98%"></circle><circle cx="238" cy="69" r="1097" stroke-width="3" stroke-dasharray="0px 0px" fill="none" stroke="#feffe6" stroke-opacity="100%" opacity="98%"></circle><circle cx="238" cy="69" r="1076" stroke-width="3" stroke-dasharray="0px 0px" fill="none" stroke="#feffe6" stroke-opacity="100%" opacity="98%"></circle><circle cx="238" cy="69" r="1055" stroke-width="3" stroke-dasharray="0px 0px" fill="none" stroke="#feffe6" stroke-opacity="100%" opacity="98%"></circle><circle cx="238" cy="69" r="1034" stroke-width="3" stroke-dasharray="0px 0px" fill="none" stroke="#feffe6" stroke-opacity="100%" opacity="98%"></circle><circle cx="238" cy="69" r="1013" stroke-width="3" stroke-dasharray="0px 0px" fill="none" stroke="#feffe6" stroke-opacity="100%" opacity="98%"></circle><circle cx="238" cy="69" r="992" stroke-width="3" stroke-dasharray="0px 0px" fill="none" stroke="#feffe6" stroke-opacity="100%" opacity="98%"></circle><circle cx="238" cy="69" r="971" stroke-width="3" stroke-dasharray="0px 0px" fill="none" stroke="#feffe6" stroke-opacity="100%" opacity="98%"></circle><circle cx="238" cy="69" r="950" stroke-width="3" stroke-dasharray="0px 0px" fill="none" stroke="#feffe6" stroke-opacity="100%" opacity="98%"></circle><circle cx="238" cy="69" r="929" stroke-width="3" stroke-dasharray="0px 0px" fill="none" stroke="#feffe6" stroke-opacity="100%" opacity="98%"></circle><circle cx="238" cy="69" r="908" stroke-width="3" stroke-dasharray="0px 0px" fill="none" stroke="#feffe6" stroke-opacity="100%" opacity="98%"></circle><circle cx="238" cy="69" r="887" stroke-width="3" stroke-dasharray="0px 0px" fill="none" stroke="#feffe6" stroke-opacity="100%" opacity="98%"></circle><circle cx="238" cy="69" r="866" stroke-width="3" stroke-dasharray="0px 0px" fill="none" stroke="#feffe6" stroke-opacity="100%" opacity="98%"></circle><circle cx="238" cy="69" r="845" stroke-width="3" stroke-dasharray="0px 0px" fill="none" stroke="#feffe6" stroke-opacity="100%" opacity="98%"></circle><circle cx="238" cy="69" r="824" stroke-width="3" stroke-dasharray="0px 0px" fill="none" stroke="#feffe6" stroke-opacity="100%" opacity="98%"></circle><circle cx="238" cy="69" r="803" stroke-width="3" stroke-dasharray="0px 0px" fill="none" stroke="#feffe6" stroke-opacity="100%" opacity="98%"></circle><circle cx="238" cy="69" r="782" stroke-width="3" stroke-dasharray="0px 0px" fill="none" stroke="#feffe6" stroke-opacity="100%" opacity="98%"></circle><circle cx="238" cy="69" r="761" stroke-width="3" stroke-dasharray="0px 0px" fill="none" stroke="#feffe6" stroke-opacity="100%" opacity="98%"></circle><circle cx="238" cy="69" r="740" stroke-width="3" stroke-dasharray="0px 0px" fill="none" stroke="#feffe6" stroke-opacity="100%" opacity="98%"></circle><circle cx="238" cy="69" r="719" stroke-width="3" stroke-dasharray="0px 0px" fill="none" stroke="#feffe6" stroke-opacity="100%" opacity="98%"></circle><circle cx="238" cy="69" r="698" stroke-width="3" stroke-dasharray="0px 0px" fill="none" stroke="#feffe6" stroke-opacity="100%" opacity="98%"></circle><circle cx="238" cy="69" r="677" stroke-width="3" stroke-dasharray="0px 0px" fill="none" stroke="#feffe6" stroke-opacity="100%" opacity="98%"></circle><circle cx="238" cy="69" r="656" stroke-width="3" stroke-dasharray="0px 0px" fill="none" stroke="#feffe6" stroke-opacity="100%" opacity="98%"></circle><circle cx="238" cy="69" r="635" stroke-width="3" stroke-dasharray="0px 0px" fill="none" stroke="#feffe6" stroke-opacity="100%" opacity="98%"></circle><circle cx="238" cy="69" r="614" stroke-width="3" stroke-dasharray="0px 0px" fill="none" stroke="#feffe6" stroke-opacity="100%" opacity="98%"></circle><circle cx="238" cy="69" r="593" stroke-width="3" stroke-dasharray="0px 0px" fill="none" stroke="#feffe6" stroke-opacity="100%" opacity="98%"></circle><circle cx="238" cy="69" r="572" stroke-width="3" stroke-dasharray="0px 0px" fill="none" stroke="#feffe6" stroke-opacity="100%" opacity="98%"></circle><circle cx="238" cy="69" r="551" stroke-width="3" stroke-dasharray="0px 0px" fill="none" stroke="#feffe6" stroke-opacity="100%" opacity="98%"></circle><circle cx="238" cy="69" r="530" stroke-width="3" stroke-dasharray="0px 0px" fill="none" stroke="#feffe6" stroke-opacity="100%" opacity="98%"></circle><circle cx="238" cy="69" r="509" stroke-width="3" stroke-dasharray="0px 0px" fill="none" stroke="#feffe6" stroke-opacity="100%" opacity="98%"></circle><circle cx="238" cy="69" r="488" stroke-width="3" stroke-dasharray="0px 0px" fill="none" stroke="#feffe6" stroke-opacity="100%" opacity="98%"></circle><circle cx="238" cy="69" r="467" stroke-width="3" stroke-dasharray="0px 0px" fill="none" stroke="#feffe6" stroke-opacity="100%" opacity="98%"></circle><circle cx="238" cy="69" r="446" stroke-width="3" stroke-dasharray="0px 0px" fill="none" stroke="#feffe6" stroke-opacity="100%" opacity="98%"></circle><circle cx="238" cy="69" r="425" stroke-width="3" stroke-dasharray="0px 0px" fill="none" stroke="#feffe6" stroke-opacity="100%" opacity="98%"></circle><circle cx="238" cy="69" r="404" stroke-width="3" stroke-dasharray="0px 0px" fill="none" stroke="#feffe6" stroke-opacity="100%" opacity="98%"></circle><circle cx="238" cy="69" r="383" stroke-width="3" stroke-dasharray="0px 0px" fill="none" stroke="#feffe6" stroke-opacity="100%" opacity="98%"></circle><circle cx="238" cy="69" r="362" stroke-width="3" stroke-dasharray="0px 0px" fill="none" stroke="#feffe6" stroke-opacity="100%" opacity="98%"></circle><circle cx="238" cy="69" r="341" stroke-width="3" stroke-dasharray="0px 0px" fill="none" stroke="#feffe6" stroke-opacity="100%" opacity="98%"></circle><circle cx="238" cy="69" r="320" stroke-width="3" stroke-dasharray="0px 0px" fill="none" stroke="#feffe6" stroke-opacity="100%" opacity="98%"></circle><circle cx="238" cy="69" r="299" stroke-width="3" stroke-dasharray="0px 0px" fill="none" stroke="#feffe6" stroke-opacity="100%" opacity="98%"></circle><circle cx="238" cy="69" r="278" stroke-width="3" stroke-dasharray="0px 0px" fill="none" stroke="#feffe6" stroke-opacity="100%" opacity="98%"></circle><circle cx="238" cy="69" r="257" stroke-width="3" stroke-dasharray="0px 0px" fill="none" stroke="#feffe6" stroke-opacity="100%" opacity="98%"></circle><circle cx="238" cy="69" r="236" stroke-width="3" stroke-dasharray="0px 0px" fill="none" stroke="#feffe6" stroke-opacity="100%" opacity="98%"></circle><circle cx="238" cy="69" r="215" stroke-width="3" stroke-dasharray="0px 0px" fill="none" stroke="#feffe6" stroke-opacity="100%" opacity="98%"></circle><circle cx="238" cy="69" r="194" stroke-width="3" stroke-dasharray="0px 0px" fill="none" stroke="#feffe6" stroke-opacity="100%" opacity="98%"></circle><circle cx="238" cy="69" r="173" stroke-width="3" stroke-dasharray="0px 0px" fill="none" stroke="#feffe6" stroke-opacity="100%" opacity="98%"></circle><circle cx="238" cy="69" r="152" stroke-width="3" stroke-dasharray="0px 0px" fill="none" stroke="#feffe6" stroke-opacity="100%" opacity="98%"></circle><circle cx="238" cy="69" r="131" stroke-width="3" stroke-dasharray="0px 0px" fill="none" stroke="#feffe6" stroke-opacity="100%" opacity="98%"></circle><circle cx="238" cy="69" r="110" stroke-width="3" stroke-dasharray="0px 0px" fill="none" stroke="#feffe6" stroke-opacity="100%" opacity="98%"></circle><circle cx="238" cy="69" r="89" stroke-width="3" stroke-dasharray="0px 0px" fill="none" stroke="#feffe6" stroke-opacity="100%" opacity="98%"></circle><circle cx="238" cy="69" r="68" stroke-width="3" stroke-dasharray="0px 0px" fill="none" stroke="#feffe6" stroke-opacity="100%" opacity="98%"></circle><circle cx="238" cy="69" r="47" stroke-width="3" stroke-dasharray="0px 0px" fill="none" stroke="#feffe6" stroke-opacity="100%" opacity="98%"></circle><circle cx="238" cy="69" r="26" stroke-width="3" stroke-dasharray="0px 0px" fill="none" stroke="#feffe6" stroke-opacity="100%" opacity="98%"></circle><style>.voyager { font: 20px monospace; fill: #ffffff; }</style><text x="232.5" y="74.5" class="voyager" >+</text><rect x="0" y="0" width="1200" height="1200" style="stroke:#fcfceb; fill: none;stroke-width:80px"/><g id="triptych"><line x1="400.0" y1="0" x2="400.0" y2="1200" style="stroke:#fcfceb;stroke-width:10px;" /><line x1="800.0" y1="0" x2="800.0" y2="1200" style="stroke:#fcfceb;stroke-width:10px;" /></g><rect x="0" y="0" width="1200" height="1200" style="stroke: #000000; fill: none;stroke-width:1px"/><style>.label { font: 20px monospace; fill: #999999; }</style><g id="label"><text x="40" y="1187" class="label" >VOYAGER 1: 1977-9-9 LOCATION: 0.1000 347.30 7.3347 284.63 271.86</text></g><style>.top_label { font: 16px monospace; fill: #999999; }</style><g id="top_label"><text x="40" y="27" class="top_label" >SOLAR WIND: 0.0330 0.0330 -1.0010 0.1280 1.0097 5.460 5.270 84.0 239.8 TRIAXIAL FLUXGATE MAGNETOMETER</text></g></svg>