<svg xmlns="http://www.w3.org/2000/svg" width="1200px" height="1200px" version="1.1">
    <defs>
    </defs>
    <g>
        <path
            d="M 0 727.0 c 67 15 137 9 244 -7 70 10 136 -6 229 -6 75 -16 126 -9 250 2 66 18 126 -6 256 5 76 10 138 7 231 5 78 -18 134 -20 228 -9 77 17 120 3 222 -5 64 8 135 -14 239 -9 63 -20 138 8 254 2 74 3 146 18 245 1 69 -14 129 2 235 4 68 13 135 -10 234 -17 78 16 144 -2 250 -17 76 9 134 6 251 1 64 -6 130 -18 224 -7 64 18 122 6 239 -11 60 10 132 -12 252 -19 64 6 125 16 239 -12 l -40 1200 H 0 Z"
            fill="black" />
    </g>
</svg>