<svg xmlns="http://www.w3.org/2000/svg" width="1200px" height="1200px" version="1.1">
    <defs>
        <filter id="grain" x="-50vw" y="-50vh" width="100vw" height="100vh">
            <feFlood flood-color="#ffffff" result="neutral-gray" />
            <feTurbulence in="neutral-gray" type="fractalNoise" baseFrequency="2.8" numOctaves="100"
                stitchTiles="stitch" result="noise" />
            <feColorMatrix in="noise" type="saturate" values="0" result="destaturatedNoise"></feColorMatrix>
            <feComponentTransfer in="desaturatedNoise" result="theNoise">
                <feFuncA type="table" tableValues="0 0 0.3 0"></feFuncA>
            </feComponentTransfer>
            <feBlend in="SourceGraphic" in2="theNoise" mode="soft-light" result="noisy-image" />
        </filter>
        <linearGradient id="wc0" gradientTransform="rotate(90)">
            <stop offset="5%" stop-color="#65868B" />
            <stop offset="95%" stop-color="#65868B" />
        </linearGradient>
        <linearGradient id="wc1" gradientTransform="rotate(90)">
            <stop offset="5%" stop-color="#65868B" />
            <stop offset="95%" stop-color="#65868B" />
        </linearGradient>
        <linearGradient id="wc2" gradientTransform="rotate(90)">
            <stop offset="5%" stop-color="#BBE1E4" />
            <stop offset="95%" stop-color="#BBE1E4" />
        </linearGradient>
        <filter id="shadow">
            <feDropShadow dx="-0.23145051713739184" dy="-0.13318916331026553" stdDeviation="0.8167132410523174" />
        </filter>
        <clipPath id="sky">
            <path fill="#000000" d="M 0 0 h 1200 v 1200 H 0 z" />
        </clipPath>
    </defs>
    <g  clip-path="url(#sky)">
        <path fill="#001b59" d="M 0 0 h 1200 v 1200 H 0 z" />
    </g>
    <circle cx="928" cy="457" r="3" fill-opacity="1" fill="#ffffff" />
    <circle cx="416" cy="335" r="2" fill-opacity="1" fill="#ffffff" />
    <circle cx="471" cy="556" r="2" fill-opacity="1" fill="#ffffff" />
    <circle cx="408" cy="825" r="2000" stroke-width="1px" stroke-dasharray="0px 0px" fill="none" stroke="#ffffff"
        stroke-opacity="100%" opacity="92%"></circle>
    <circle cx="408" cy="825" r="1979" stroke-width="1px" stroke-dasharray="0px 0px" fill="none" stroke="#ffffff"
        stroke-opacity="100%" opacity="92%"></circle>
    <circle cx="408" cy="825" r="1958" stroke-width="1px" stroke-dasharray="0px 0px" fill="none" stroke="#ffffff"
        stroke-opacity="100%" opacity="92%"></circle>
    <circle cx="408" cy="825" r="1937" stroke-width="1px" stroke-dasharray="0px 0px" fill="none" stroke="#ffffff"
        stroke-opacity="100%" opacity="92%"></circle>
    <circle cx="408" cy="825" r="1916" stroke-width="1px" stroke-dasharray="0px 0px" fill="none" stroke="#ffffff"
        stroke-opacity="100%" opacity="92%"></circle>
    <circle cx="408" cy="825" r="1895" stroke-width="1px" stroke-dasharray="0px 0px" fill="none" stroke="#ffffff"
        stroke-opacity="100%" opacity="92%"></circle>
    <circle cx="408" cy="825" r="1874" stroke-width="1px" stroke-dasharray="0px 0px" fill="none" stroke="#ffffff"
        stroke-opacity="100%" opacity="92%"></circle>
    <circle cx="408" cy="825" r="1853" stroke-width="1px" stroke-dasharray="0px 0px" fill="none" stroke="#ffffff"
        stroke-opacity="100%" opacity="92%"></circle>
    <circle cx="408" cy="825" r="1832" stroke-width="1px" stroke-dasharray="0px 0px" fill="none" stroke="#ffffff"
        stroke-opacity="100%" opacity="92%"></circle>
    <circle cx="408" cy="825" r="1811" stroke-width="1px" stroke-dasharray="0px 0px" fill="none" stroke="#ffffff"
        stroke-opacity="100%" opacity="92%"></circle>
    <circle cx="408" cy="825" r="1790" stroke-width="1px" stroke-dasharray="0px 0px" fill="none" stroke="#ffffff"
        stroke-opacity="100%" opacity="92%"></circle>
    <circle cx="408" cy="825" r="1769" stroke-width="1px" stroke-dasharray="0px 0px" fill="none" stroke="#ffffff"
        stroke-opacity="100%" opacity="92%"></circle>
    <circle cx="408" cy="825" r="1748" stroke-width="1px" stroke-dasharray="0px 0px" fill="none" stroke="#ffffff"
        stroke-opacity="100%" opacity="92%"></circle>
    <circle cx="408" cy="825" r="1727" stroke-width="1px" stroke-dasharray="0px 0px" fill="none" stroke="#ffffff"
        stroke-opacity="100%" opacity="92%"></circle>
    <circle cx="408" cy="825" r="1706" stroke-width="1px" stroke-dasharray="0px 0px" fill="none" stroke="#ffffff"
        stroke-opacity="100%" opacity="92%"></circle>
    <circle cx="408" cy="825" r="1685" stroke-width="1px" stroke-dasharray="0px 0px" fill="none" stroke="#ffffff"
        stroke-opacity="100%" opacity="92%"></circle>
    <circle cx="408" cy="825" r="1664" stroke-width="1px" stroke-dasharray="0px 0px" fill="none" stroke="#ffffff"
        stroke-opacity="100%" opacity="92%"></circle>
    <circle cx="408" cy="825" r="1643" stroke-width="1px" stroke-dasharray="0px 0px" fill="none" stroke="#ffffff"
        stroke-opacity="100%" opacity="92%"></circle>
    <circle cx="408" cy="825" r="1622" stroke-width="1px" stroke-dasharray="0px 0px" fill="none" stroke="#ffffff"
        stroke-opacity="100%" opacity="92%"></circle>
    <circle cx="408" cy="825" r="1601" stroke-width="1px" stroke-dasharray="0px 0px" fill="none" stroke="#ffffff"
        stroke-opacity="100%" opacity="92%"></circle>
    <circle cx="408" cy="825" r="1580" stroke-width="1px" stroke-dasharray="0px 0px" fill="none" stroke="#ffffff"
        stroke-opacity="100%" opacity="92%"></circle>
    <circle cx="408" cy="825" r="1559" stroke-width="1px" stroke-dasharray="0px 0px" fill="none" stroke="#ffffff"
        stroke-opacity="100%" opacity="92%"></circle>
    <circle cx="408" cy="825" r="1538" stroke-width="1px" stroke-dasharray="0px 0px" fill="none" stroke="#ffffff"
        stroke-opacity="100%" opacity="92%"></circle>
    <circle cx="408" cy="825" r="1517" stroke-width="1px" stroke-dasharray="0px 0px" fill="none" stroke="#ffffff"
        stroke-opacity="100%" opacity="92%"></circle>
    <circle cx="408" cy="825" r="1496" stroke-width="1px" stroke-dasharray="0px 0px" fill="none" stroke="#ffffff"
        stroke-opacity="100%" opacity="92%"></circle>
    <circle cx="408" cy="825" r="1475" stroke-width="1px" stroke-dasharray="0px 0px" fill="none" stroke="#ffffff"
        stroke-opacity="100%" opacity="92%"></circle>
    <circle cx="408" cy="825" r="1454" stroke-width="1px" stroke-dasharray="0px 0px" fill="none" stroke="#ffffff"
        stroke-opacity="100%" opacity="92%"></circle>
    <circle cx="408" cy="825" r="1433" stroke-width="1px" stroke-dasharray="0px 0px" fill="none" stroke="#ffffff"
        stroke-opacity="100%" opacity="92%"></circle>
    <circle cx="408" cy="825" r="1412" stroke-width="1px" stroke-dasharray="0px 0px" fill="none" stroke="#ffffff"
        stroke-opacity="100%" opacity="92%"></circle>
    <circle cx="408" cy="825" r="1391" stroke-width="1px" stroke-dasharray="0px 0px" fill="none" stroke="#ffffff"
        stroke-opacity="100%" opacity="92%"></circle>
    <circle cx="408" cy="825" r="1370" stroke-width="1px" stroke-dasharray="0px 0px" fill="none" stroke="#ffffff"
        stroke-opacity="100%" opacity="92%"></circle>
    <circle cx="408" cy="825" r="1349" stroke-width="1px" stroke-dasharray="0px 0px" fill="none" stroke="#ffffff"
        stroke-opacity="100%" opacity="92%"></circle>
    <circle cx="408" cy="825" r="1328" stroke-width="1px" stroke-dasharray="0px 0px" fill="none" stroke="#ffffff"
        stroke-opacity="100%" opacity="92%"></circle>
    <circle cx="408" cy="825" r="1307" stroke-width="1px" stroke-dasharray="0px 0px" fill="none" stroke="#ffffff"
        stroke-opacity="100%" opacity="92%"></circle>
    <circle cx="408" cy="825" r="1286" stroke-width="1px" stroke-dasharray="0px 0px" fill="none" stroke="#ffffff"
        stroke-opacity="100%" opacity="92%"></circle>
    <circle cx="408" cy="825" r="1265" stroke-width="1px" stroke-dasharray="0px 0px" fill="none" stroke="#ffffff"
        stroke-opacity="100%" opacity="92%"></circle>
    <circle cx="408" cy="825" r="1244" stroke-width="1px" stroke-dasharray="0px 0px" fill="none" stroke="#ffffff"
        stroke-opacity="100%" opacity="92%"></circle>
    <circle cx="408" cy="825" r="1223" stroke-width="1px" stroke-dasharray="0px 0px" fill="none" stroke="#ffffff"
        stroke-opacity="100%" opacity="92%"></circle>
    <circle cx="408" cy="825" r="1202" stroke-width="1px" stroke-dasharray="0px 0px" fill="none" stroke="#ffffff"
        stroke-opacity="100%" opacity="92%"></circle>
    <circle cx="408" cy="825" r="1181" stroke-width="1px" stroke-dasharray="0px 0px" fill="none" stroke="#ffffff"
        stroke-opacity="100%" opacity="92%"></circle>
    <circle cx="408" cy="825" r="1160" stroke-width="1px" stroke-dasharray="0px 0px" fill="none" stroke="#ffffff"
        stroke-opacity="100%" opacity="92%"></circle>
    <circle cx="408" cy="825" r="1139" stroke-width="1px" stroke-dasharray="0px 0px" fill="none" stroke="#ffffff"
        stroke-opacity="100%" opacity="92%"></circle>
    <circle cx="408" cy="825" r="1118" stroke-width="1px" stroke-dasharray="0px 0px" fill="none" stroke="#ffffff"
        stroke-opacity="100%" opacity="92%"></circle>
    <circle cx="408" cy="825" r="1097" stroke-width="1px" stroke-dasharray="0px 0px" fill="none" stroke="#ffffff"
        stroke-opacity="100%" opacity="92%"></circle>
    <circle cx="408" cy="825" r="1076" stroke-width="1px" stroke-dasharray="0px 0px" fill="none" stroke="#ffffff"
        stroke-opacity="100%" opacity="92%"></circle>
    <circle cx="408" cy="825" r="1055" stroke-width="1px" stroke-dasharray="0px 0px" fill="none" stroke="#ffffff"
        stroke-opacity="100%" opacity="92%"></circle>
    <circle cx="408" cy="825" r="1034" stroke-width="1px" stroke-dasharray="0px 0px" fill="none" stroke="#ffffff"
        stroke-opacity="100%" opacity="92%"></circle>
    <circle cx="408" cy="825" r="1013" stroke-width="1px" stroke-dasharray="0px 0px" fill="none" stroke="#ffffff"
        stroke-opacity="100%" opacity="92%"></circle>
    <circle cx="408" cy="825" r="992" stroke-width="1px" stroke-dasharray="0px 0px" fill="none" stroke="#ffffff"
        stroke-opacity="100%" opacity="92%"></circle>
    <circle cx="408" cy="825" r="971" stroke-width="1px" stroke-dasharray="0px 0px" fill="none" stroke="#ffffff"
        stroke-opacity="100%" opacity="92%"></circle>
    <circle cx="408" cy="825" r="950" stroke-width="1px" stroke-dasharray="0px 0px" fill="none" stroke="#ffffff"
        stroke-opacity="100%" opacity="92%"></circle>
    <circle cx="408" cy="825" r="929" stroke-width="1px" stroke-dasharray="0px 0px" fill="none" stroke="#ffffff"
        stroke-opacity="100%" opacity="92%"></circle>
    <circle cx="408" cy="825" r="908" stroke-width="1px" stroke-dasharray="0px 0px" fill="none" stroke="#ffffff"
        stroke-opacity="100%" opacity="92%"></circle>
    <circle cx="408" cy="825" r="887" stroke-width="1px" stroke-dasharray="0px 0px" fill="none" stroke="#ffffff"
        stroke-opacity="100%" opacity="92%"></circle>
    <circle cx="408" cy="825" r="866" stroke-width="1px" stroke-dasharray="0px 0px" fill="none" stroke="#ffffff"
        stroke-opacity="100%" opacity="92%"></circle>
    <circle cx="408" cy="825" r="845" stroke-width="1px" stroke-dasharray="0px 0px" fill="none" stroke="#ffffff"
        stroke-opacity="100%" opacity="92%"></circle>
    <circle cx="408" cy="825" r="824" stroke-width="1px" stroke-dasharray="0px 0px" fill="none" stroke="#ffffff"
        stroke-opacity="100%" opacity="92%"></circle>
    <circle cx="408" cy="825" r="803" stroke-width="1px" stroke-dasharray="0px 0px" fill="none" stroke="#ffffff"
        stroke-opacity="100%" opacity="92%"></circle>
    <circle cx="408" cy="825" r="782" stroke-width="1px" stroke-dasharray="0px 0px" fill="none" stroke="#ffffff"
        stroke-opacity="100%" opacity="92%"></circle>
    <circle cx="408" cy="825" r="761" stroke-width="1px" stroke-dasharray="0px 0px" fill="none" stroke="#ffffff"
        stroke-opacity="100%" opacity="92%"></circle>
    <circle cx="408" cy="825" r="740" stroke-width="1px" stroke-dasharray="0px 0px" fill="none" stroke="#ffffff"
        stroke-opacity="100%" opacity="92%"></circle>
    <circle cx="408" cy="825" r="719" stroke-width="1px" stroke-dasharray="0px 0px" fill="none" stroke="#ffffff"
        stroke-opacity="100%" opacity="92%"></circle>
    <circle cx="408" cy="825" r="698" stroke-width="1px" stroke-dasharray="0px 0px" fill="none" stroke="#ffffff"
        stroke-opacity="100%" opacity="92%"></circle>
    <circle cx="408" cy="825" r="677" stroke-width="1px" stroke-dasharray="0px 0px" fill="none" stroke="#ffffff"
        stroke-opacity="100%" opacity="92%"></circle>
    <circle cx="408" cy="825" r="656" stroke-width="1px" stroke-dasharray="0px 0px" fill="none" stroke="#ffffff"
        stroke-opacity="100%" opacity="92%"></circle>
    <circle cx="408" cy="825" r="635" stroke-width="1px" stroke-dasharray="0px 0px" fill="none" stroke="#ffffff"
        stroke-opacity="100%" opacity="92%"></circle>
    <circle cx="408" cy="825" r="614" stroke-width="1px" stroke-dasharray="0px 0px" fill="none" stroke="#ffffff"
        stroke-opacity="100%" opacity="92%"></circle>
    <circle cx="408" cy="825" r="593" stroke-width="1px" stroke-dasharray="0px 0px" fill="none" stroke="#ffffff"
        stroke-opacity="100%" opacity="92%"></circle>
    <circle cx="408" cy="825" r="572" stroke-width="1px" stroke-dasharray="0px 0px" fill="none" stroke="#ffffff"
        stroke-opacity="100%" opacity="92%"></circle>
    <circle cx="408" cy="825" r="551" stroke-width="1px" stroke-dasharray="0px 0px" fill="none" stroke="#ffffff"
        stroke-opacity="100%" opacity="92%"></circle>
    <circle cx="408" cy="825" r="530" stroke-width="1px" stroke-dasharray="0px 0px" fill="none" stroke="#ffffff"
        stroke-opacity="100%" opacity="92%"></circle>
    <circle cx="408" cy="825" r="509" stroke-width="1px" stroke-dasharray="0px 0px" fill="none" stroke="#ffffff"
        stroke-opacity="100%" opacity="92%"></circle>
    <circle cx="408" cy="825" r="488" stroke-width="1px" stroke-dasharray="0px 0px" fill="none" stroke="#ffffff"
        stroke-opacity="100%" opacity="92%"></circle>
    <circle cx="408" cy="825" r="467" stroke-width="1px" stroke-dasharray="0px 0px" fill="none" stroke="#ffffff"
        stroke-opacity="100%" opacity="92%"></circle>
    <circle cx="408" cy="825" r="446" stroke-width="1px" stroke-dasharray="0px 0px" fill="none" stroke="#ffffff"
        stroke-opacity="100%" opacity="92%"></circle>
    <circle cx="408" cy="825" r="425" stroke-width="1px" stroke-dasharray="0px 0px" fill="none" stroke="#ffffff"
        stroke-opacity="100%" opacity="92%"></circle>
    <circle cx="408" cy="825" r="404" stroke-width="1px" stroke-dasharray="0px 0px" fill="none" stroke="#ffffff"
        stroke-opacity="100%" opacity="92%"></circle>
    <circle cx="408" cy="825" r="383" stroke-width="1px" stroke-dasharray="0px 0px" fill="none" stroke="#ffffff"
        stroke-opacity="100%" opacity="92%"></circle>
    <circle cx="408" cy="825" r="362" stroke-width="1px" stroke-dasharray="0px 0px" fill="none" stroke="#ffffff"
        stroke-opacity="100%" opacity="92%"></circle>
    <circle cx="408" cy="825" r="341" stroke-width="1px" stroke-dasharray="0px 0px" fill="none" stroke="#ffffff"
        stroke-opacity="100%" opacity="92%"></circle>
    <circle cx="408" cy="825" r="320" stroke-width="1px" stroke-dasharray="0px 0px" fill="none" stroke="#ffffff"
        stroke-opacity="100%" opacity="92%"></circle>
    <circle cx="408" cy="825" r="299" stroke-width="1px" stroke-dasharray="0px 0px" fill="none" stroke="#ffffff"
        stroke-opacity="100%" opacity="92%"></circle>
    <circle cx="408" cy="825" r="278" stroke-width="1px" stroke-dasharray="0px 0px" fill="none" stroke="#ffffff"
        stroke-opacity="100%" opacity="92%"></circle>
    <circle cx="408" cy="825" r="257" stroke-width="1px" stroke-dasharray="0px 0px" fill="none" stroke="#ffffff"
        stroke-opacity="100%" opacity="92%"></circle>
    <circle cx="408" cy="825" r="236" stroke-width="1px" stroke-dasharray="0px 0px" fill="none" stroke="#ffffff"
        stroke-opacity="100%" opacity="92%"></circle>
    <circle cx="408" cy="825" r="215" stroke-width="1px" stroke-dasharray="0px 0px" fill="none" stroke="#ffffff"
        stroke-opacity="100%" opacity="92%"></circle>
    <circle cx="408" cy="825" r="194" stroke-width="1px" stroke-dasharray="0px 0px" fill="none" stroke="#ffffff"
        stroke-opacity="100%" opacity="92%"></circle>
    <circle cx="408" cy="825" r="173" stroke-width="1px" stroke-dasharray="0px 0px" fill="none" stroke="#ffffff"
        stroke-opacity="100%" opacity="92%"></circle>
    <circle cx="408" cy="825" r="152" stroke-width="1px" stroke-dasharray="0px 0px" fill="none" stroke="#ffffff"
        stroke-opacity="100%" opacity="92%"></circle>
    <circle cx="408" cy="825" r="131" stroke-width="1px" stroke-dasharray="0px 0px" fill="none" stroke="#ffffff"
        stroke-opacity="100%" opacity="92%"></circle>
    <circle cx="408" cy="825" r="110" stroke-width="1px" stroke-dasharray="0px 0px" fill="none" stroke="#ffffff"
        stroke-opacity="100%" opacity="92%"></circle>
    <circle cx="408" cy="825" r="89" stroke-width="1px" stroke-dasharray="0px 0px" fill="none" stroke="#ffffff"
        stroke-opacity="100%" opacity="92%"></circle>
    <circle cx="408" cy="825" r="68" stroke-width="1px" stroke-dasharray="0px 0px" fill="none" stroke="#ffffff"
        stroke-opacity="100%" opacity="92%"></circle>
    <circle cx="408" cy="825" r="47" stroke-width="1px" stroke-dasharray="0px 0px" fill="none" stroke="#ffffff"
        stroke-opacity="100%" opacity="92%"></circle>
    <circle cx="408" cy="825" r="26" stroke-width="1px" stroke-dasharray="0px 0px" fill="none" stroke="#ffffff"
        stroke-opacity="100%" opacity="92%"></circle>
    <style>
        .voyager {
            font: 20px monospace;
            fill: #ffffff;
        }
    </style><text x="402.5" y="830.5" class="voyager">+</text>
    <g>
        <path
            d="M 0 727.0 c 67 15 137 9 244 -7 70 10 136 -6 229 -6 75 -16 126 -9 250 2 66 18 126 -6 256 5 76 10 138 7 231 5 78 -18 134 -20 228 -9 77 17 120 3 222 -5 64 8 135 -14 239 -9 63 -20 138 8 254 2 74 3 146 18 245 1 69 -14 129 2 235 4 68 13 135 -10 234 -17 78 16 144 -2 250 -17 76 9 134 6 251 1 64 -6 130 -18 224 -7 64 18 122 6 239 -11 60 10 132 -12 252 -19 64 6 125 16 239 -12 l -40 1200 H 0 Z"
            fill="url(#wc0)" filter="url(#shadow)" />
    </g>
    <g >
        <path
            d="M 0 832.0 c 70 -20 123 -16 232 -9 63 7 128 -2 236 -17 77 -7 138 -12 246 5 79 -7 122 -6 235 -19 79 -1 128 -4 235 -18 68 7 139 -2 220 2 60 16 143 -16 258 -12 79 1 133 -15 258 -4 63 -20 125 8 234 -4 72 3 141 -4 233 -20 67 8 127 -2 239 0 70 18 121 18 223 -19 62 -11 146 6 254 -17 63 -3 123 4 251 -8 76 -20 143 11 222 -12 73 19 124 -11 256 -18 77 16 142 12 246 -6 78 -12 123 11 251 5 l -40 1200 H 0 Z"
            fill="url(#wc1)" filter="url(#shadow)" />
    </g>
    <g >
        <path
            d="M 0 995.0 c 67 2 125 15 245 -10 67 3 124 10 247 4 68 -10 131 9 246 8 75 -12 143 7 247 9 74 -15 136 -16 244 1 76 -3 120 14 225 -16 71 15 132 -8 235 -13 67 11 146 -18 230 -15 67 8 130 -4 246 5 64 -2 137 2 245 -8 72 15 136 10 233 5 74 -7 142 4 249 -11 72 -20 141 -6 221 -5 64 -14 120 1 229 -18 60 -16 139 -2 242 -13 67 -16 125 -12 231 -5 64 8 146 0 251 8 65 -7 130 -13 255 5 l -40 1200 H 0 Z"
            fill="url(#wc2)" filter="url(#shadow)" />
    </g>
    <rect x="0" y="0" width="1200" height="1200" style="stroke:#fcfceb; fill: none;stroke-width:80px" />
    <g id="triptych">
        <line x1="400.0" y1="0" x2="400.0" y2="1200" style="stroke:#fcfceb;stroke-width:10px;" />
        <line x1="800.0" y1="0" x2="800.0" y2="1200" style="stroke:#fcfceb;stroke-width:10px;" />
    </g>
    <rect x="0" y="0" width="1200" height="1200" style="stroke: #000000; fill: none;stroke-width:1px" />
    <style>
        .label {
            font: 20px monospace;
            fill: #999999;
        }
    </style>
    <g id="label"><text x="40" y="1187" class="label">VOYAGER 1: 1977-9-9 LOCATION: 0.1000 347.30 7.3347 284.63
            271.86</text></g>
    <style>
        .top_label {
            font: 16px monospace;
            fill: #999999;
        }
    </style>
    <g id="top_label"><text x="40" y="27" class="top_label">SOLAR WIND: 0.0330 0.0330 -1.0010 0.1280 1.0097 5.460 5.270
            84.0 239.8 TRIAXIAL FLUXGATE MAGNETOMETER</text></g>
</svg>