<!DOCTYPE svg PUBLIC "-//W3C//DTD SVG 1.1//EN" "http://www.w3.org/Graphics/SVG/1.1/DTD/svg11.dtd"><svg width="1200px" height="1200px" xmlns="http://www.w3.org/2000/svg" version="1.1"  xmlns:xlink="http://www.w3.org/1999/xlink" xmlns:svgjs="http://svgjs.dev/svgjs"><defs><filter id="nnnoise-filter" x="-20%" y="-20%" width="140%" height="140%" filterUnits="objectBoundingBox" primitiveUnits="userSpaceOnUse" color-interpolation-filters="linearRGB"><feTurbulence type="fractalNoise" baseFrequency="0.103" numOctaves="4" seed="15" stitchTiles="stitch" x="0%" y="0%" width="100%" height="100%" result="turbulence"></feTurbulence><feSpecularLighting surfaceScale="13" specularConstant="0.9" specularExponent="20" lighting-color="hsl(23, 0%, 100%)" x="0%" y="0%" width="100%" height="100%" in="turbulence" result="specularLighting"><feDistantLight azimuth="3" elevation="91"></feDistantLight></feSpecularLighting></filter></defs><rect x="0" y="0" style="fill:#061a40" width="1200" height="1200" /><rect x="0" y="0" filter="url(#nnnoise-filter)" style="fill:#061a40" width="1200" height="1200" /><circle cx="2" cy="145" r="3" fill-opacity="1" fill="#ffffff" /><circle cx="593" cy="253" r="2" fill-opacity="1" fill="#ffffff" /><circle cx="939" cy="559" r="2" fill-opacity="1" fill="#ffffff" /><path stroke="#747373" stroke-width="3" fill="#0771B8" d="M 0 515.0 c 78 -17 136 6 248 -3 76 -13 124 8 249 -6 70 3 128 -6 221 3 60 3 142 -14 259 0 76 -10 149 -4 220 5 77 -4 120 3 250 -6 60 8 139 4 229 -11 68 1 133 -14 245 7 71 5 135 5 247 4 69 1 131 19 220 -16 71 -17 125 -12 251 -6 73 10 132 -20 243 1 62 -10 148 -12 228 -18 77 19 143 -15 227 -6 70 6 131 19 220 -11 76 6 127 3 253 4 70 -14 120 7 224 -10 65 6 139 15 245 -20 l -40 1200 H 0 Z" /><path stroke="#747373" stroke-width="4" fill="#1E97C4" d="M 0 631.0 c 76 15 141 -10 229 8 75 1 121 -18 252 -16 66 -14 138 -3 257 -9 66 -5 124 1 240 -13 79 13 132 18 237 1 65 16 133 3 241 -8 71 -2 146 -18 243 -17 77 -19 131 19 238 -1 71 16 148 16 245 0 78 -19 145 -1 236 -5 66 7 130 -17 237 3 72 -3 130 0 248 1 60 10 123 15 241 -9 65 8 121 -3 223 3 75 18 126 4 252 -9 70 15 129 7 258 1 67 -12 127 1 250 -19 64 -12 142 -20 234 -18 l -40 1200 H 0 Z" /><path stroke="#747373" stroke-width="1" fill="#2DA7C7" d="M 0 792.0 c 68 13 128 13 245 -6 66 18 142 17 232 -6 74 -3 133 17 229 4 65 -8 147 13 247 -17 68 -2 143 -10 259 1 67 6 146 -14 257 9 73 -8 123 5 240 7 63 -13 141 -14 234 -6 69 9 135 9 250 6 73 9 131 -5 228 -16 67 -1 149 -10 235 0 71 2 144 -9 220 -6 75 -15 132 4 238 -10 66 -5 136 -1 248 -16 77 -17 135 18 248 2 62 -10 121 17 230 8 67 -17 149 19 242 5 68 15 126 -10 245 -4 l -40 1200 H 0 Z" /><path stroke="#747373" stroke-width="1" fill="#1E97C4" d="M 0 867.0 c 64 5 131 16 234 -8 74 9 133 12 231 -9 74 13 131 2 223 -2 75 -9 143 18 248 -14 64 -15 137 12 222 4 76 -10 145 0 244 7 72 3 128 -16 253 -1 74 5 131 -14 227 -4 77 17 147 -12 220 8 78 8 126 18 250 3 72 9 126 -5 248 -6 63 5 143 -15 223 6 66 -15 120 14 226 9 62 12 139 15 244 -13 60 3 123 3 257 5 79 -8 145 3 248 -8 61 17 122 17 239 -6 63 6 121 13 227 -1 l -40 1200 H 0 Z" /><path stroke="#747373" stroke-width="4" fill="#0771B8" d="M 0 879.0 c 71 9 135 -15 243 -6 64 -17 122 -8 220 -18 67 -12 141 -5 238 -18 77 1 128 -7 248 -8 62 14 133 -14 226 -9 61 -2 144 9 250 6 71 -9 147 -8 254 9 60 1 128 4 242 9 65 7 139 7 257 -17 73 14 122 6 223 -6 62 -20 120 -7 244 9 71 3 143 -5 257 -4 61 -15 131 4 243 4 64 14 130 -18 254 -5 69 -14 122 -4 234 -15 68 -6 127 17 230 0 73 -1 145 -5 225 -20 70 -6 126 -1 232 -7 l -40 1200 H 0 Z" /><circle cx="232" cy="290" r="2000" stroke-width="1" stroke-dasharray="0px 0px" fill="none" stroke="#ffffff" stroke-opacity="100%" opacity="94%"></circle><circle cx="232" cy="290" r="1977" stroke-width="1" stroke-dasharray="0px 0px" fill="none" stroke="#ffffff" stroke-opacity="100%" opacity="94%"></circle><circle cx="232" cy="290" r="1954" stroke-width="1" stroke-dasharray="0px 0px" fill="none" stroke="#ffffff" stroke-opacity="100%" opacity="94%"></circle><circle cx="232" cy="290" r="1931" stroke-width="1" stroke-dasharray="0px 0px" fill="none" stroke="#ffffff" stroke-opacity="100%" opacity="94%"></circle><circle cx="232" cy="290" r="1908" stroke-width="1" stroke-dasharray="0px 0px" fill="none" stroke="#ffffff" stroke-opacity="100%" opacity="94%"></circle><circle cx="232" cy="290" r="1885" stroke-width="1" stroke-dasharray="0px 0px" fill="none" stroke="#ffffff" stroke-opacity="100%" opacity="94%"></circle><circle cx="232" cy="290" r="1862" stroke-width="1" stroke-dasharray="0px 0px" fill="none" stroke="#ffffff" stroke-opacity="100%" opacity="94%"></circle><circle cx="232" cy="290" r="1839" stroke-width="1" stroke-dasharray="0px 0px" fill="none" stroke="#ffffff" stroke-opacity="100%" opacity="94%"></circle><circle cx="232" cy="290" r="1816" stroke-width="1" stroke-dasharray="0px 0px" fill="none" stroke="#ffffff" stroke-opacity="100%" opacity="94%"></circle><circle cx="232" cy="290" r="1793" stroke-width="1" stroke-dasharray="0px 0px" fill="none" stroke="#ffffff" stroke-opacity="100%" opacity="94%"></circle><circle cx="232" cy="290" r="1770" stroke-width="1" stroke-dasharray="0px 0px" fill="none" stroke="#ffffff" stroke-opacity="100%" opacity="94%"></circle><circle cx="232" cy="290" r="1747" stroke-width="1" stroke-dasharray="0px 0px" fill="none" stroke="#ffffff" stroke-opacity="100%" opacity="94%"></circle><circle cx="232" cy="290" r="1724" stroke-width="1" stroke-dasharray="0px 0px" fill="none" stroke="#ffffff" stroke-opacity="100%" opacity="94%"></circle><circle cx="232" cy="290" r="1701" stroke-width="1" stroke-dasharray="0px 0px" fill="none" stroke="#ffffff" stroke-opacity="100%" opacity="94%"></circle><circle cx="232" cy="290" r="1678" stroke-width="1" stroke-dasharray="0px 0px" fill="none" stroke="#ffffff" stroke-opacity="100%" opacity="94%"></circle><circle cx="232" cy="290" r="1655" stroke-width="1" stroke-dasharray="0px 0px" fill="none" stroke="#ffffff" stroke-opacity="100%" opacity="94%"></circle><circle cx="232" cy="290" r="1632" stroke-width="1" stroke-dasharray="0px 0px" fill="none" stroke="#ffffff" stroke-opacity="100%" opacity="94%"></circle><circle cx="232" cy="290" r="1609" stroke-width="1" stroke-dasharray="0px 0px" fill="none" stroke="#ffffff" stroke-opacity="100%" opacity="94%"></circle><circle cx="232" cy="290" r="1586" stroke-width="1" stroke-dasharray="0px 0px" fill="none" stroke="#ffffff" stroke-opacity="100%" opacity="94%"></circle><circle cx="232" cy="290" r="1563" stroke-width="1" stroke-dasharray="0px 0px" fill="none" stroke="#ffffff" stroke-opacity="100%" opacity="94%"></circle><circle cx="232" cy="290" r="1540" stroke-width="1" stroke-dasharray="0px 0px" fill="none" stroke="#ffffff" stroke-opacity="100%" opacity="94%"></circle><circle cx="232" cy="290" r="1517" stroke-width="1" stroke-dasharray="0px 0px" fill="none" stroke="#ffffff" stroke-opacity="100%" opacity="94%"></circle><circle cx="232" cy="290" r="1494" stroke-width="1" stroke-dasharray="0px 0px" fill="none" stroke="#ffffff" stroke-opacity="100%" opacity="94%"></circle><circle cx="232" cy="290" r="1471" stroke-width="1" stroke-dasharray="0px 0px" fill="none" stroke="#ffffff" stroke-opacity="100%" opacity="94%"></circle><circle cx="232" cy="290" r="1448" stroke-width="1" stroke-dasharray="0px 0px" fill="none" stroke="#ffffff" stroke-opacity="100%" opacity="94%"></circle><circle cx="232" cy="290" r="1425" stroke-width="1" stroke-dasharray="0px 0px" fill="none" stroke="#ffffff" stroke-opacity="100%" opacity="94%"></circle><circle cx="232" cy="290" r="1402" stroke-width="1" stroke-dasharray="0px 0px" fill="none" stroke="#ffffff" stroke-opacity="100%" opacity="94%"></circle><circle cx="232" cy="290" r="1379" stroke-width="1" stroke-dasharray="0px 0px" fill="none" stroke="#ffffff" stroke-opacity="100%" opacity="94%"></circle><circle cx="232" cy="290" r="1356" stroke-width="1" stroke-dasharray="0px 0px" fill="none" stroke="#ffffff" stroke-opacity="100%" opacity="94%"></circle><circle cx="232" cy="290" r="1333" stroke-width="1" stroke-dasharray="0px 0px" fill="none" stroke="#ffffff" stroke-opacity="100%" opacity="94%"></circle><circle cx="232" cy="290" r="1310" stroke-width="1" stroke-dasharray="0px 0px" fill="none" stroke="#ffffff" stroke-opacity="100%" opacity="94%"></circle><circle cx="232" cy="290" r="1287" stroke-width="1" stroke-dasharray="0px 0px" fill="none" stroke="#ffffff" stroke-opacity="100%" opacity="94%"></circle><circle cx="232" cy="290" r="1264" stroke-width="1" stroke-dasharray="0px 0px" fill="none" stroke="#ffffff" stroke-opacity="100%" opacity="94%"></circle><circle cx="232" cy="290" r="1241" stroke-width="1" stroke-dasharray="0px 0px" fill="none" stroke="#ffffff" stroke-opacity="100%" opacity="94%"></circle><circle cx="232" cy="290" r="1218" stroke-width="1" stroke-dasharray="0px 0px" fill="none" stroke="#ffffff" stroke-opacity="100%" opacity="94%"></circle><circle cx="232" cy="290" r="1195" stroke-width="1" stroke-dasharray="0px 0px" fill="none" stroke="#ffffff" stroke-opacity="100%" opacity="94%"></circle><circle cx="232" cy="290" r="1172" stroke-width="1" stroke-dasharray="0px 0px" fill="none" stroke="#ffffff" stroke-opacity="100%" opacity="94%"></circle><circle cx="232" cy="290" r="1149" stroke-width="1" stroke-dasharray="0px 0px" fill="none" stroke="#ffffff" stroke-opacity="100%" opacity="94%"></circle><circle cx="232" cy="290" r="1126" stroke-width="1" stroke-dasharray="0px 0px" fill="none" stroke="#ffffff" stroke-opacity="100%" opacity="94%"></circle><circle cx="232" cy="290" r="1103" stroke-width="1" stroke-dasharray="0px 0px" fill="none" stroke="#ffffff" stroke-opacity="100%" opacity="94%"></circle><circle cx="232" cy="290" r="1080" stroke-width="1" stroke-dasharray="0px 0px" fill="none" stroke="#ffffff" stroke-opacity="100%" opacity="94%"></circle><circle cx="232" cy="290" r="1057" stroke-width="1" stroke-dasharray="0px 0px" fill="none" stroke="#ffffff" stroke-opacity="100%" opacity="94%"></circle><circle cx="232" cy="290" r="1034" stroke-width="1" stroke-dasharray="0px 0px" fill="none" stroke="#ffffff" stroke-opacity="100%" opacity="94%"></circle><circle cx="232" cy="290" r="1011" stroke-width="1" stroke-dasharray="0px 0px" fill="none" stroke="#ffffff" stroke-opacity="100%" opacity="94%"></circle><circle cx="232" cy="290" r="988" stroke-width="1" stroke-dasharray="0px 0px" fill="none" stroke="#ffffff" stroke-opacity="100%" opacity="94%"></circle><circle cx="232" cy="290" r="965" stroke-width="1" stroke-dasharray="0px 0px" fill="none" stroke="#ffffff" stroke-opacity="100%" opacity="94%"></circle><circle cx="232" cy="290" r="942" stroke-width="1" stroke-dasharray="0px 0px" fill="none" stroke="#ffffff" stroke-opacity="100%" opacity="94%"></circle><circle cx="232" cy="290" r="919" stroke-width="1" stroke-dasharray="0px 0px" fill="none" stroke="#ffffff" stroke-opacity="100%" opacity="94%"></circle><circle cx="232" cy="290" r="896" stroke-width="1" stroke-dasharray="0px 0px" fill="none" stroke="#ffffff" stroke-opacity="100%" opacity="94%"></circle><circle cx="232" cy="290" r="873" stroke-width="1" stroke-dasharray="0px 0px" fill="none" stroke="#ffffff" stroke-opacity="100%" opacity="94%"></circle><circle cx="232" cy="290" r="850" stroke-width="1" stroke-dasharray="0px 0px" fill="none" stroke="#ffffff" stroke-opacity="100%" opacity="94%"></circle><circle cx="232" cy="290" r="827" stroke-width="1" stroke-dasharray="0px 0px" fill="none" stroke="#ffffff" stroke-opacity="100%" opacity="94%"></circle><circle cx="232" cy="290" r="804" stroke-width="1" stroke-dasharray="0px 0px" fill="none" stroke="#ffffff" stroke-opacity="100%" opacity="94%"></circle><circle cx="232" cy="290" r="781" stroke-width="1" stroke-dasharray="0px 0px" fill="none" stroke="#ffffff" stroke-opacity="100%" opacity="94%"></circle><circle cx="232" cy="290" r="758" stroke-width="1" stroke-dasharray="0px 0px" fill="none" stroke="#ffffff" stroke-opacity="100%" opacity="94%"></circle><circle cx="232" cy="290" r="735" stroke-width="1" stroke-dasharray="0px 0px" fill="none" stroke="#ffffff" stroke-opacity="100%" opacity="94%"></circle><circle cx="232" cy="290" r="712" stroke-width="1" stroke-dasharray="0px 0px" fill="none" stroke="#ffffff" stroke-opacity="100%" opacity="94%"></circle><circle cx="232" cy="290" r="689" stroke-width="1" stroke-dasharray="0px 0px" fill="none" stroke="#ffffff" stroke-opacity="100%" opacity="94%"></circle><circle cx="232" cy="290" r="666" stroke-width="1" stroke-dasharray="0px 0px" fill="none" stroke="#ffffff" stroke-opacity="100%" opacity="94%"></circle><circle cx="232" cy="290" r="643" stroke-width="1" stroke-dasharray="0px 0px" fill="none" stroke="#ffffff" stroke-opacity="100%" opacity="94%"></circle><circle cx="232" cy="290" r="620" stroke-width="1" stroke-dasharray="0px 0px" fill="none" stroke="#ffffff" stroke-opacity="100%" opacity="94%"></circle><circle cx="232" cy="290" r="597" stroke-width="1" stroke-dasharray="0px 0px" fill="none" stroke="#ffffff" stroke-opacity="100%" opacity="94%"></circle><circle cx="232" cy="290" r="574" stroke-width="1" stroke-dasharray="0px 0px" fill="none" stroke="#ffffff" stroke-opacity="100%" opacity="94%"></circle><circle cx="232" cy="290" r="551" stroke-width="1" stroke-dasharray="0px 0px" fill="none" stroke="#ffffff" stroke-opacity="100%" opacity="94%"></circle><circle cx="232" cy="290" r="528" stroke-width="1" stroke-dasharray="0px 0px" fill="none" stroke="#ffffff" stroke-opacity="100%" opacity="94%"></circle><circle cx="232" cy="290" r="505" stroke-width="1" stroke-dasharray="0px 0px" fill="none" stroke="#ffffff" stroke-opacity="100%" opacity="94%"></circle><circle cx="232" cy="290" r="482" stroke-width="1" stroke-dasharray="0px 0px" fill="none" stroke="#ffffff" stroke-opacity="100%" opacity="94%"></circle><circle cx="232" cy="290" r="459" stroke-width="1" stroke-dasharray="0px 0px" fill="none" stroke="#ffffff" stroke-opacity="100%" opacity="94%"></circle><circle cx="232" cy="290" r="436" stroke-width="1" stroke-dasharray="0px 0px" fill="none" stroke="#ffffff" stroke-opacity="100%" opacity="94%"></circle><circle cx="232" cy="290" r="413" stroke-width="1" stroke-dasharray="0px 0px" fill="none" stroke="#ffffff" stroke-opacity="100%" opacity="94%"></circle><circle cx="232" cy="290" r="390" stroke-width="1" stroke-dasharray="0px 0px" fill="none" stroke="#ffffff" stroke-opacity="100%" opacity="94%"></circle><circle cx="232" cy="290" r="367" stroke-width="1" stroke-dasharray="0px 0px" fill="none" stroke="#ffffff" stroke-opacity="100%" opacity="94%"></circle><circle cx="232" cy="290" r="344" stroke-width="1" stroke-dasharray="0px 0px" fill="none" stroke="#ffffff" stroke-opacity="100%" opacity="94%"></circle><circle cx="232" cy="290" r="321" stroke-width="1" stroke-dasharray="0px 0px" fill="none" stroke="#ffffff" stroke-opacity="100%" opacity="94%"></circle><circle cx="232" cy="290" r="298" stroke-width="1" stroke-dasharray="0px 0px" fill="none" stroke="#ffffff" stroke-opacity="100%" opacity="94%"></circle><circle cx="232" cy="290" r="275" stroke-width="1" stroke-dasharray="0px 0px" fill="none" stroke="#ffffff" stroke-opacity="100%" opacity="94%"></circle><circle cx="232" cy="290" r="252" stroke-width="1" stroke-dasharray="0px 0px" fill="none" stroke="#ffffff" stroke-opacity="100%" opacity="94%"></circle><circle cx="232" cy="290" r="229" stroke-width="1" stroke-dasharray="0px 0px" fill="none" stroke="#ffffff" stroke-opacity="100%" opacity="94%"></circle><circle cx="232" cy="290" r="206" stroke-width="1" stroke-dasharray="0px 0px" fill="none" stroke="#ffffff" stroke-opacity="100%" opacity="94%"></circle><circle cx="232" cy="290" r="183" stroke-width="1" stroke-dasharray="0px 0px" fill="none" stroke="#ffffff" stroke-opacity="100%" opacity="94%"></circle><circle cx="232" cy="290" r="160" stroke-width="1" stroke-dasharray="0px 0px" fill="none" stroke="#ffffff" stroke-opacity="100%" opacity="94%"></circle><circle cx="232" cy="290" r="137" stroke-width="1" stroke-dasharray="0px 0px" fill="none" stroke="#ffffff" stroke-opacity="100%" opacity="94%"></circle><circle cx="232" cy="290" r="114" stroke-width="1" stroke-dasharray="0px 0px" fill="none" stroke="#ffffff" stroke-opacity="100%" opacity="94%"></circle><circle cx="232" cy="290" r="91" stroke-width="1" stroke-dasharray="0px 0px" fill="none" stroke="#ffffff" stroke-opacity="100%" opacity="94%"></circle><circle cx="232" cy="290" r="68" stroke-width="1" stroke-dasharray="0px 0px" fill="none" stroke="#ffffff" stroke-opacity="100%" opacity="94%"></circle><circle cx="232" cy="290" r="45" stroke-width="1" stroke-dasharray="0px 0px" fill="none" stroke="#ffffff" stroke-opacity="100%" opacity="94%"></circle><style>.voyager { font: 20px monospace; fill: #ffffff; }</style><text x="226.5" y="295.5" class="voyager" >+</text><rect x="0" y="0" width="1200" height="1200" style="stroke:#fcfceb; fill: none;stroke-width:80px"/><g id="triptych"><line x1="400.0" y1="0" x2="400.0" y2="1200" style="stroke:#fcfceb;stroke-width:10px;" /><line x1="800.0" y1="0" x2="800.0" y2="1200" style="stroke:#fcfceb;stroke-width:10px;" /></g><rect x="0" y="0" width="1200" height="1200" style="stroke: #000000; fill: none;stroke-width:1px"/><style>.label { font: 20px monospace; fill: #999999; }</style><g id="label"><text x="40" y="1187" class="label" >VOYAGER 1: 1977-9-29 LOCATION: 0.5000 12.20 6.9598 26.04 296.96</text></g><style>.top_label { font: 16px monospace; fill: #999999; }</style><g id="top_label"><text x="40" y="27" class="top_label" >SOLAR WIND: 0.4820 0.4820 -0.9490 0.1300 1.0723 7.860 7.460 53.2 72.7 TRIAXIAL FLUXGATE MAGNETOMETER</text></g></svg>