<!DOCTYPE svg PUBLIC "-//W3C//DTD SVG 1.1//EN" "http://www.w3.org/Graphics/SVG/1.1/DTD/svg11.dtd"><svg width="1200px" height="1200px"  style="background-color:#061a40" xmlns="http://www.w3.org/2000/svg" version="1.1"  xmlns:xlink="http://www.w3.org/1999/xlink" xmlns:svgjs="http://svgjs.dev/svgjs"><defs><filter id="nnnoise-filter" x="-20%" y="-20%" width="140%" height="140%" filterUnits="objectBoundingBox" primitiveUnits="userSpaceOnUse" color-interpolation-filters="linearRGB"><feTurbulence type="fractalNoise" baseFrequency="0.103" numOctaves="4" seed="15" stitchTiles="stitch" x="0%" y="0%" width="100%" height="100%" result="turbulence"></feTurbulence><feSpecularLighting surfaceScale="13" specularConstant="0.9" specularExponent="20" lighting-color="hsl(23, 0%, 100%)" x="0%" y="0%" width="100%" height="100%" in="turbulence" result="specularLighting"><feDistantLight azimuth="3" elevation="91"></feDistantLight></feSpecularLighting></filter></defs><circle cx="279" cy="94" r="3" fill-opacity="1" fill="#ffffff" /><circle cx="981" cy="532" r="2" fill-opacity="1" fill="#ffffff" /><circle cx="310" cy="97" r="2" fill-opacity="1" fill="#ffffff" /><circle cx="268" cy="614" r="2000" stroke-width="1" stroke-dasharray="0px 0px" fill="none" stroke="#ffffff" stroke-opacity="100%" opacity="91%"></circle><circle cx="268" cy="614" r="1971" stroke-width="1" stroke-dasharray="0px 0px" fill="none" stroke="#ffffff" stroke-opacity="100%" opacity="91%"></circle><circle cx="268" cy="614" r="1942" stroke-width="1" stroke-dasharray="0px 0px" fill="none" stroke="#ffffff" stroke-opacity="100%" opacity="91%"></circle><circle cx="268" cy="614" r="1913" stroke-width="1" stroke-dasharray="0px 0px" fill="none" stroke="#ffffff" stroke-opacity="100%" opacity="91%"></circle><circle cx="268" cy="614" r="1884" stroke-width="1" stroke-dasharray="0px 0px" fill="none" stroke="#ffffff" stroke-opacity="100%" opacity="91%"></circle><circle cx="268" cy="614" r="1855" stroke-width="1" stroke-dasharray="0px 0px" fill="none" stroke="#ffffff" stroke-opacity="100%" opacity="91%"></circle><circle cx="268" cy="614" r="1826" stroke-width="1" stroke-dasharray="0px 0px" fill="none" stroke="#ffffff" stroke-opacity="100%" opacity="91%"></circle><circle cx="268" cy="614" r="1797" stroke-width="1" stroke-dasharray="0px 0px" fill="none" stroke="#ffffff" stroke-opacity="100%" opacity="91%"></circle><circle cx="268" cy="614" r="1768" stroke-width="1" stroke-dasharray="0px 0px" fill="none" stroke="#ffffff" stroke-opacity="100%" opacity="91%"></circle><circle cx="268" cy="614" r="1739" stroke-width="1" stroke-dasharray="0px 0px" fill="none" stroke="#ffffff" stroke-opacity="100%" opacity="91%"></circle><circle cx="268" cy="614" r="1710" stroke-width="1" stroke-dasharray="0px 0px" fill="none" stroke="#ffffff" stroke-opacity="100%" opacity="91%"></circle><circle cx="268" cy="614" r="1681" stroke-width="1" stroke-dasharray="0px 0px" fill="none" stroke="#ffffff" stroke-opacity="100%" opacity="91%"></circle><circle cx="268" cy="614" r="1652" stroke-width="1" stroke-dasharray="0px 0px" fill="none" stroke="#ffffff" stroke-opacity="100%" opacity="91%"></circle><circle cx="268" cy="614" r="1623" stroke-width="1" stroke-dasharray="0px 0px" fill="none" stroke="#ffffff" stroke-opacity="100%" opacity="91%"></circle><circle cx="268" cy="614" r="1594" stroke-width="1" stroke-dasharray="0px 0px" fill="none" stroke="#ffffff" stroke-opacity="100%" opacity="91%"></circle><circle cx="268" cy="614" r="1565" stroke-width="1" stroke-dasharray="0px 0px" fill="none" stroke="#ffffff" stroke-opacity="100%" opacity="91%"></circle><circle cx="268" cy="614" r="1536" stroke-width="1" stroke-dasharray="0px 0px" fill="none" stroke="#ffffff" stroke-opacity="100%" opacity="91%"></circle><circle cx="268" cy="614" r="1507" stroke-width="1" stroke-dasharray="0px 0px" fill="none" stroke="#ffffff" stroke-opacity="100%" opacity="91%"></circle><circle cx="268" cy="614" r="1478" stroke-width="1" stroke-dasharray="0px 0px" fill="none" stroke="#ffffff" stroke-opacity="100%" opacity="91%"></circle><circle cx="268" cy="614" r="1449" stroke-width="1" stroke-dasharray="0px 0px" fill="none" stroke="#ffffff" stroke-opacity="100%" opacity="91%"></circle><circle cx="268" cy="614" r="1420" stroke-width="1" stroke-dasharray="0px 0px" fill="none" stroke="#ffffff" stroke-opacity="100%" opacity="91%"></circle><circle cx="268" cy="614" r="1391" stroke-width="1" stroke-dasharray="0px 0px" fill="none" stroke="#ffffff" stroke-opacity="100%" opacity="91%"></circle><circle cx="268" cy="614" r="1362" stroke-width="1" stroke-dasharray="0px 0px" fill="none" stroke="#ffffff" stroke-opacity="100%" opacity="91%"></circle><circle cx="268" cy="614" r="1333" stroke-width="1" stroke-dasharray="0px 0px" fill="none" stroke="#ffffff" stroke-opacity="100%" opacity="91%"></circle><circle cx="268" cy="614" r="1304" stroke-width="1" stroke-dasharray="0px 0px" fill="none" stroke="#ffffff" stroke-opacity="100%" opacity="91%"></circle><circle cx="268" cy="614" r="1275" stroke-width="1" stroke-dasharray="0px 0px" fill="none" stroke="#ffffff" stroke-opacity="100%" opacity="91%"></circle><circle cx="268" cy="614" r="1246" stroke-width="1" stroke-dasharray="0px 0px" fill="none" stroke="#ffffff" stroke-opacity="100%" opacity="91%"></circle><circle cx="268" cy="614" r="1217" stroke-width="1" stroke-dasharray="0px 0px" fill="none" stroke="#ffffff" stroke-opacity="100%" opacity="91%"></circle><circle cx="268" cy="614" r="1188" stroke-width="1" stroke-dasharray="0px 0px" fill="none" stroke="#ffffff" stroke-opacity="100%" opacity="91%"></circle><circle cx="268" cy="614" r="1159" stroke-width="1" stroke-dasharray="0px 0px" fill="none" stroke="#ffffff" stroke-opacity="100%" opacity="91%"></circle><circle cx="268" cy="614" r="1130" stroke-width="1" stroke-dasharray="0px 0px" fill="none" stroke="#ffffff" stroke-opacity="100%" opacity="91%"></circle><circle cx="268" cy="614" r="1101" stroke-width="1" stroke-dasharray="0px 0px" fill="none" stroke="#ffffff" stroke-opacity="100%" opacity="91%"></circle><circle cx="268" cy="614" r="1072" stroke-width="1" stroke-dasharray="0px 0px" fill="none" stroke="#ffffff" stroke-opacity="100%" opacity="91%"></circle><circle cx="268" cy="614" r="1043" stroke-width="1" stroke-dasharray="0px 0px" fill="none" stroke="#ffffff" stroke-opacity="100%" opacity="91%"></circle><circle cx="268" cy="614" r="1014" stroke-width="1" stroke-dasharray="0px 0px" fill="none" stroke="#ffffff" stroke-opacity="100%" opacity="91%"></circle><circle cx="268" cy="614" r="985" stroke-width="1" stroke-dasharray="0px 0px" fill="none" stroke="#ffffff" stroke-opacity="100%" opacity="91%"></circle><circle cx="268" cy="614" r="956" stroke-width="1" stroke-dasharray="0px 0px" fill="none" stroke="#ffffff" stroke-opacity="100%" opacity="91%"></circle><circle cx="268" cy="614" r="927" stroke-width="1" stroke-dasharray="0px 0px" fill="none" stroke="#ffffff" stroke-opacity="100%" opacity="91%"></circle><circle cx="268" cy="614" r="898" stroke-width="1" stroke-dasharray="0px 0px" fill="none" stroke="#ffffff" stroke-opacity="100%" opacity="91%"></circle><circle cx="268" cy="614" r="869" stroke-width="1" stroke-dasharray="0px 0px" fill="none" stroke="#ffffff" stroke-opacity="100%" opacity="91%"></circle><circle cx="268" cy="614" r="840" stroke-width="1" stroke-dasharray="0px 0px" fill="none" stroke="#ffffff" stroke-opacity="100%" opacity="91%"></circle><circle cx="268" cy="614" r="811" stroke-width="1" stroke-dasharray="0px 0px" fill="none" stroke="#ffffff" stroke-opacity="100%" opacity="91%"></circle><circle cx="268" cy="614" r="782" stroke-width="1" stroke-dasharray="0px 0px" fill="none" stroke="#ffffff" stroke-opacity="100%" opacity="91%"></circle><circle cx="268" cy="614" r="753" stroke-width="1" stroke-dasharray="0px 0px" fill="none" stroke="#ffffff" stroke-opacity="100%" opacity="91%"></circle><circle cx="268" cy="614" r="724" stroke-width="1" stroke-dasharray="0px 0px" fill="none" stroke="#ffffff" stroke-opacity="100%" opacity="91%"></circle><circle cx="268" cy="614" r="695" stroke-width="1" stroke-dasharray="0px 0px" fill="none" stroke="#ffffff" stroke-opacity="100%" opacity="91%"></circle><circle cx="268" cy="614" r="666" stroke-width="1" stroke-dasharray="0px 0px" fill="none" stroke="#ffffff" stroke-opacity="100%" opacity="91%"></circle><circle cx="268" cy="614" r="637" stroke-width="1" stroke-dasharray="0px 0px" fill="none" stroke="#ffffff" stroke-opacity="100%" opacity="91%"></circle><circle cx="268" cy="614" r="608" stroke-width="1" stroke-dasharray="0px 0px" fill="none" stroke="#ffffff" stroke-opacity="100%" opacity="91%"></circle><circle cx="268" cy="614" r="579" stroke-width="1" stroke-dasharray="0px 0px" fill="none" stroke="#ffffff" stroke-opacity="100%" opacity="91%"></circle><circle cx="268" cy="614" r="550" stroke-width="1" stroke-dasharray="0px 0px" fill="none" stroke="#ffffff" stroke-opacity="100%" opacity="91%"></circle><circle cx="268" cy="614" r="521" stroke-width="1" stroke-dasharray="0px 0px" fill="none" stroke="#ffffff" stroke-opacity="100%" opacity="91%"></circle><circle cx="268" cy="614" r="492" stroke-width="1" stroke-dasharray="0px 0px" fill="none" stroke="#ffffff" stroke-opacity="100%" opacity="91%"></circle><circle cx="268" cy="614" r="463" stroke-width="1" stroke-dasharray="0px 0px" fill="none" stroke="#ffffff" stroke-opacity="100%" opacity="91%"></circle><circle cx="268" cy="614" r="434" stroke-width="1" stroke-dasharray="0px 0px" fill="none" stroke="#ffffff" stroke-opacity="100%" opacity="91%"></circle><circle cx="268" cy="614" r="405" stroke-width="1" stroke-dasharray="0px 0px" fill="none" stroke="#ffffff" stroke-opacity="100%" opacity="91%"></circle><circle cx="268" cy="614" r="376" stroke-width="1" stroke-dasharray="0px 0px" fill="none" stroke="#ffffff" stroke-opacity="100%" opacity="91%"></circle><circle cx="268" cy="614" r="347" stroke-width="1" stroke-dasharray="0px 0px" fill="none" stroke="#ffffff" stroke-opacity="100%" opacity="91%"></circle><circle cx="268" cy="614" r="318" stroke-width="1" stroke-dasharray="0px 0px" fill="none" stroke="#ffffff" stroke-opacity="100%" opacity="91%"></circle><circle cx="268" cy="614" r="289" stroke-width="1" stroke-dasharray="0px 0px" fill="none" stroke="#ffffff" stroke-opacity="100%" opacity="91%"></circle><circle cx="268" cy="614" r="260" stroke-width="1" stroke-dasharray="0px 0px" fill="none" stroke="#ffffff" stroke-opacity="100%" opacity="91%"></circle><circle cx="268" cy="614" r="231" stroke-width="1" stroke-dasharray="0px 0px" fill="none" stroke="#ffffff" stroke-opacity="100%" opacity="91%"></circle><circle cx="268" cy="614" r="202" stroke-width="1" stroke-dasharray="0px 0px" fill="none" stroke="#ffffff" stroke-opacity="100%" opacity="91%"></circle><circle cx="268" cy="614" r="173" stroke-width="1" stroke-dasharray="0px 0px" fill="none" stroke="#ffffff" stroke-opacity="100%" opacity="91%"></circle><circle cx="268" cy="614" r="144" stroke-width="1" stroke-dasharray="0px 0px" fill="none" stroke="#ffffff" stroke-opacity="100%" opacity="91%"></circle><circle cx="268" cy="614" r="115" stroke-width="1" stroke-dasharray="0px 0px" fill="none" stroke="#ffffff" stroke-opacity="100%" opacity="91%"></circle><circle cx="268" cy="614" r="86" stroke-width="1" stroke-dasharray="0px 0px" fill="none" stroke="#ffffff" stroke-opacity="100%" opacity="91%"></circle><circle cx="268" cy="614" r="57" stroke-width="1" stroke-dasharray="0px 0px" fill="none" stroke="#ffffff" stroke-opacity="100%" opacity="91%"></circle><style>.voyager { font: 20px monospace; fill: #ffffff; }</style><text x="262.5" y="619.5" class="voyager" >+</text><path stroke="#747373" stroke-width="1" fill="#006daa" d="M 0 566.0 c 73 -5 146 2 236 -7 72 -10 144 -9 221 -4 61 -16 144 -15 223 -11 75 12 122 -13 242 8 75 -3 130 1 240 8 77 2 139 10 224 -5 76 15 135 -14 243 -19 78 10 125 2 244 -5 76 3 138 11 242 -12 79 11 144 13 224 3 67 0 149 -8 249 -15 64 14 137 -20 244 -4 72 14 123 12 245 -12 61 12 143 7 226 -2 61 9 127 18 259 6 65 14 129 19 233 -3 68 -19 123 -2 239 -13 62 19 131 -3 223 -14 l -40 1200 H 0 Z" filter="url(#nnnoise-filter)" /><path stroke="#747373" stroke-width="0" fill="#b9d6f2" d="M 0 695.0 c 64 -6 129 6 255 -1 77 11 141 19 255 2 60 -2 136 -1 227 -12 64 -14 127 -13 225 -6 75 -11 122 14 229 -6 66 -10 120 14 234 -18 66 -6 141 10 233 -16 74 0 130 -15 223 -20 60 -20 145 -7 242 9 70 10 141 2 242 -6 64 12 137 -18 225 -6 64 3 141 1 254 -4 67 7 149 11 221 -8 77 -14 134 19 251 0 61 7 140 15 250 -18 75 13 129 -15 252 2 74 -6 121 1 234 -13 60 -8 125 7 235 -18 l -40 1200 H 0 Z" filter="url(#nnnoise-filter)" /><path stroke="#747373" stroke-width="4" fill="#006daa" d="M 0 805.0 c 65 -18 138 2 226 9 72 -10 149 6 249 9 73 -2 134 -18 223 -16 79 -7 138 -17 231 9 67 -13 122 -15 225 -14 63 9 140 -11 233 -13 73 4 146 -5 221 6 73 12 143 8 249 -17 63 9 128 -7 244 -5 61 -14 122 1 230 -5 60 -5 143 -7 244 -10 77 4 130 15 227 -5 65 6 127 -15 230 -16 60 15 143 -15 236 -20 67 3 131 14 236 -11 69 -17 136 -17 244 -7 67 -20 128 -6 237 9 66 -14 145 1 229 -9 l -40 1200 H 0 Z" filter="url(#nnnoise-filter)" /><path stroke="#747373" stroke-width="1" fill="#b9d6f2" d="M 0 997.0 c 63 18 130 7 221 -5 73 -7 121 17 243 -20 61 12 149 -10 250 -2 74 3 126 -7 243 -17 63 10 148 4 253 -4 70 -7 135 -18 236 -1 60 -12 137 3 245 -8 69 -1 132 -18 250 7 74 -19 141 -14 252 1 71 -4 141 19 223 5 66 3 131 -8 242 -14 74 -18 133 7 238 -17 62 7 125 -16 221 8 67 4 146 -17 252 -19 74 -14 134 -13 220 -17 66 0 140 7 248 -4 76 -2 126 7 245 -20 69 -13 138 -18 226 -10 l -40 1200 H 0 Z" filter="url(#nnnoise-filter)" /><path stroke="#747373" stroke-width="4" fill="#006daa" d="M 0 1060.0 c 69 0 132 -15 256 -6 75 -8 148 14 245 -10 63 -2 141 -19 247 -9 66 5 134 10 259 -4 71 6 132 -5 234 -16 68 2 141 -15 258 -13 79 7 136 -20 245 -13 75 8 134 9 241 5 77 2 145 -20 244 -3 71 8 127 11 239 -8 72 7 125 6 233 -17 75 -3 126 -7 230 -10 72 -9 141 12 249 -7 61 17 143 16 234 -12 72 -15 135 -19 247 -11 66 9 125 3 244 1 66 7 129 -17 246 -4 64 -16 148 17 240 -8 l -40 1200 H 0 Z" filter="url(#nnnoise-filter)" /><rect x="0" y="0" width="1200" height="1200" style="stroke:#fcfceb; fill: none;stroke-width:80px"/><g id="triptych"><line x1="400.0" y1="0" x2="400.0" y2="1200" style="stroke:#fcfceb;stroke-width:10px;" /><line x1="800.0" y1="0" x2="800.0" y2="1200" style="stroke:#fcfceb;stroke-width:10px;" /></g><rect x="0" y="0" width="1200" height="1200" style="stroke: #000000; fill: none;stroke-width:1px"/><style>.label { font: 20px monospace; fill: #999999; }</style><g id="label"><text x="40" y="1187" class="label" >VOYAGER 1: 1977-10-3 LOCATION: 0.6000 16.70 6.7829 333.83 301.49</text></g><style>.top_label { font: 16px monospace; fill: #999999; }</style><g id="top_label"><text x="40" y="27" class="top_label" >SOLAR WIND: 0.5670 0.5670 -0.9260 0.1280 1.0933 6.020 5.940 10.0 135.5 TRIAXIAL FLUXGATE MAGNETOMETER</text></g></svg>