<!DOCTYPE svg PUBLIC "-//W3C//DTD SVG 1.1//EN" "http://www.w3.org/Graphics/SVG/1.1/DTD/svg11.dtd"><svg width="1200px" height="1200px"  style="background-color:#000814" xmlns="http://www.w3.org/2000/svg" version="1.1"><defs></defs><circle cx="888" cy="394" r="51" fill="#E0EEEE" stroke="#f3f3f3" stroke-width="1" /><circle cx="719" cy="440" r="3" fill-opacity="1" fill="#ffffff" /><path stroke="#747373" stroke-width="0" fill="#ffd60a" d="M 0 856.0 c 69 -19 142 4 232 6 72 -14 131 -16 252 4 66 -18 147 4 249 6 63 -16 131 13 220 0 75 13 129 17 230 -9 68 -15 127 7 251 -19 74 -18 140 -15 246 -20 68 -1 138 1 244 -2 79 6 141 14 252 -9 65 1 128 -13 220 -11 69 1 144 -2 245 -6 63 -3 124 19 259 7 68 6 134 18 254 2 64 9 120 -16 234 -15 l -40 1200 H 0 Z" /><path stroke="#747373" stroke-width="0" fill="#003566" d="M 0 971.0 c 77 -18 121 10 225 1 67 -2 127 -10 259 -4 68 6 138 -16 231 5 64 -7 145 -9 241 -3 79 2 124 11 226 9 74 14 149 -16 248 -5 74 -8 121 12 242 -5 74 16 130 -20 227 -10 65 -16 124 7 220 -9 72 -11 132 11 224 -6 61 -4 121 12 235 -8 66 13 120 -18 232 1 66 -4 126 10 250 -20 79 1 124 5 247 -3 l -40 1200 H 0 Z" /><circle cx="275" cy="121" r="2000" stroke-width="1" stroke-dasharray="0px 0px" fill="none" stroke="#ffffff" stroke-opacity="100%" opacity="89%"></circle><circle cx="275" cy="121" r="1981" stroke-width="1" stroke-dasharray="0px 0px" fill="none" stroke="#ffffff" stroke-opacity="100%" opacity="89%"></circle><circle cx="275" cy="121" r="1962" stroke-width="1" stroke-dasharray="0px 0px" fill="none" stroke="#ffffff" stroke-opacity="100%" opacity="89%"></circle><circle cx="275" cy="121" r="1943" stroke-width="1" stroke-dasharray="0px 0px" fill="none" stroke="#ffffff" stroke-opacity="100%" opacity="89%"></circle><circle cx="275" cy="121" r="1924" stroke-width="1" stroke-dasharray="0px 0px" fill="none" stroke="#ffffff" stroke-opacity="100%" opacity="89%"></circle><circle cx="275" cy="121" r="1905" stroke-width="1" stroke-dasharray="0px 0px" fill="none" stroke="#ffffff" stroke-opacity="100%" opacity="89%"></circle><circle cx="275" cy="121" r="1886" stroke-width="1" stroke-dasharray="0px 0px" fill="none" stroke="#ffffff" stroke-opacity="100%" opacity="89%"></circle><circle cx="275" cy="121" r="1867" stroke-width="1" stroke-dasharray="0px 0px" fill="none" stroke="#ffffff" stroke-opacity="100%" opacity="89%"></circle><circle cx="275" cy="121" r="1848" stroke-width="1" stroke-dasharray="0px 0px" fill="none" stroke="#ffffff" stroke-opacity="100%" opacity="89%"></circle><circle cx="275" cy="121" r="1829" stroke-width="1" stroke-dasharray="0px 0px" fill="none" stroke="#ffffff" stroke-opacity="100%" opacity="89%"></circle><circle cx="275" cy="121" r="1810" stroke-width="1" stroke-dasharray="0px 0px" fill="none" stroke="#ffffff" stroke-opacity="100%" opacity="89%"></circle><circle cx="275" cy="121" r="1791" stroke-width="1" stroke-dasharray="0px 0px" fill="none" stroke="#ffffff" stroke-opacity="100%" opacity="89%"></circle><circle cx="275" cy="121" r="1772" stroke-width="1" stroke-dasharray="0px 0px" fill="none" stroke="#ffffff" stroke-opacity="100%" opacity="89%"></circle><circle cx="275" cy="121" r="1753" stroke-width="1" stroke-dasharray="0px 0px" fill="none" stroke="#ffffff" stroke-opacity="100%" opacity="89%"></circle><circle cx="275" cy="121" r="1734" stroke-width="1" stroke-dasharray="0px 0px" fill="none" stroke="#ffffff" stroke-opacity="100%" opacity="89%"></circle><circle cx="275" cy="121" r="1715" stroke-width="1" stroke-dasharray="0px 0px" fill="none" stroke="#ffffff" stroke-opacity="100%" opacity="89%"></circle><circle cx="275" cy="121" r="1696" stroke-width="1" stroke-dasharray="0px 0px" fill="none" stroke="#ffffff" stroke-opacity="100%" opacity="89%"></circle><circle cx="275" cy="121" r="1677" stroke-width="1" stroke-dasharray="0px 0px" fill="none" stroke="#ffffff" stroke-opacity="100%" opacity="89%"></circle><circle cx="275" cy="121" r="1658" stroke-width="1" stroke-dasharray="0px 0px" fill="none" stroke="#ffffff" stroke-opacity="100%" opacity="89%"></circle><circle cx="275" cy="121" r="1639" stroke-width="1" stroke-dasharray="0px 0px" fill="none" stroke="#ffffff" stroke-opacity="100%" opacity="89%"></circle><circle cx="275" cy="121" r="1620" stroke-width="1" stroke-dasharray="0px 0px" fill="none" stroke="#ffffff" stroke-opacity="100%" opacity="89%"></circle><circle cx="275" cy="121" r="1601" stroke-width="1" stroke-dasharray="0px 0px" fill="none" stroke="#ffffff" stroke-opacity="100%" opacity="89%"></circle><circle cx="275" cy="121" r="1582" stroke-width="1" stroke-dasharray="0px 0px" fill="none" stroke="#ffffff" stroke-opacity="100%" opacity="89%"></circle><circle cx="275" cy="121" r="1563" stroke-width="1" stroke-dasharray="0px 0px" fill="none" stroke="#ffffff" stroke-opacity="100%" opacity="89%"></circle><circle cx="275" cy="121" r="1544" stroke-width="1" stroke-dasharray="0px 0px" fill="none" stroke="#ffffff" stroke-opacity="100%" opacity="89%"></circle><circle cx="275" cy="121" r="1525" stroke-width="1" stroke-dasharray="0px 0px" fill="none" stroke="#ffffff" stroke-opacity="100%" opacity="89%"></circle><circle cx="275" cy="121" r="1506" stroke-width="1" stroke-dasharray="0px 0px" fill="none" stroke="#ffffff" stroke-opacity="100%" opacity="89%"></circle><circle cx="275" cy="121" r="1487" stroke-width="1" stroke-dasharray="0px 0px" fill="none" stroke="#ffffff" stroke-opacity="100%" opacity="89%"></circle><circle cx="275" cy="121" r="1468" stroke-width="1" stroke-dasharray="0px 0px" fill="none" stroke="#ffffff" stroke-opacity="100%" opacity="89%"></circle><circle cx="275" cy="121" r="1449" stroke-width="1" stroke-dasharray="0px 0px" fill="none" stroke="#ffffff" stroke-opacity="100%" opacity="89%"></circle><circle cx="275" cy="121" r="1430" stroke-width="1" stroke-dasharray="0px 0px" fill="none" stroke="#ffffff" stroke-opacity="100%" opacity="89%"></circle><circle cx="275" cy="121" r="1411" stroke-width="1" stroke-dasharray="0px 0px" fill="none" stroke="#ffffff" stroke-opacity="100%" opacity="89%"></circle><circle cx="275" cy="121" r="1392" stroke-width="1" stroke-dasharray="0px 0px" fill="none" stroke="#ffffff" stroke-opacity="100%" opacity="89%"></circle><circle cx="275" cy="121" r="1373" stroke-width="1" stroke-dasharray="0px 0px" fill="none" stroke="#ffffff" stroke-opacity="100%" opacity="89%"></circle><circle cx="275" cy="121" r="1354" stroke-width="1" stroke-dasharray="0px 0px" fill="none" stroke="#ffffff" stroke-opacity="100%" opacity="89%"></circle><circle cx="275" cy="121" r="1335" stroke-width="1" stroke-dasharray="0px 0px" fill="none" stroke="#ffffff" stroke-opacity="100%" opacity="89%"></circle><circle cx="275" cy="121" r="1316" stroke-width="1" stroke-dasharray="0px 0px" fill="none" stroke="#ffffff" stroke-opacity="100%" opacity="89%"></circle><circle cx="275" cy="121" r="1297" stroke-width="1" stroke-dasharray="0px 0px" fill="none" stroke="#ffffff" stroke-opacity="100%" opacity="89%"></circle><circle cx="275" cy="121" r="1278" stroke-width="1" stroke-dasharray="0px 0px" fill="none" stroke="#ffffff" stroke-opacity="100%" opacity="89%"></circle><circle cx="275" cy="121" r="1259" stroke-width="1" stroke-dasharray="0px 0px" fill="none" stroke="#ffffff" stroke-opacity="100%" opacity="89%"></circle><circle cx="275" cy="121" r="1240" stroke-width="1" stroke-dasharray="0px 0px" fill="none" stroke="#ffffff" stroke-opacity="100%" opacity="89%"></circle><circle cx="275" cy="121" r="1221" stroke-width="1" stroke-dasharray="0px 0px" fill="none" stroke="#ffffff" stroke-opacity="100%" opacity="89%"></circle><circle cx="275" cy="121" r="1202" stroke-width="1" stroke-dasharray="0px 0px" fill="none" stroke="#ffffff" stroke-opacity="100%" opacity="89%"></circle><circle cx="275" cy="121" r="1183" stroke-width="1" stroke-dasharray="0px 0px" fill="none" stroke="#ffffff" stroke-opacity="100%" opacity="89%"></circle><circle cx="275" cy="121" r="1164" stroke-width="1" stroke-dasharray="0px 0px" fill="none" stroke="#ffffff" stroke-opacity="100%" opacity="89%"></circle><circle cx="275" cy="121" r="1145" stroke-width="1" stroke-dasharray="0px 0px" fill="none" stroke="#ffffff" stroke-opacity="100%" opacity="89%"></circle><circle cx="275" cy="121" r="1126" stroke-width="1" stroke-dasharray="0px 0px" fill="none" stroke="#ffffff" stroke-opacity="100%" opacity="89%"></circle><circle cx="275" cy="121" r="1107" stroke-width="1" stroke-dasharray="0px 0px" fill="none" stroke="#ffffff" stroke-opacity="100%" opacity="89%"></circle><circle cx="275" cy="121" r="1088" stroke-width="1" stroke-dasharray="0px 0px" fill="none" stroke="#ffffff" stroke-opacity="100%" opacity="89%"></circle><circle cx="275" cy="121" r="1069" stroke-width="1" stroke-dasharray="0px 0px" fill="none" stroke="#ffffff" stroke-opacity="100%" opacity="89%"></circle><circle cx="275" cy="121" r="1050" stroke-width="1" stroke-dasharray="0px 0px" fill="none" stroke="#ffffff" stroke-opacity="100%" opacity="89%"></circle><circle cx="275" cy="121" r="1031" stroke-width="1" stroke-dasharray="0px 0px" fill="none" stroke="#ffffff" stroke-opacity="100%" opacity="89%"></circle><circle cx="275" cy="121" r="1012" stroke-width="1" stroke-dasharray="0px 0px" fill="none" stroke="#ffffff" stroke-opacity="100%" opacity="89%"></circle><circle cx="275" cy="121" r="993" stroke-width="1" stroke-dasharray="0px 0px" fill="none" stroke="#ffffff" stroke-opacity="100%" opacity="89%"></circle><circle cx="275" cy="121" r="974" stroke-width="1" stroke-dasharray="0px 0px" fill="none" stroke="#ffffff" stroke-opacity="100%" opacity="89%"></circle><circle cx="275" cy="121" r="955" stroke-width="1" stroke-dasharray="0px 0px" fill="none" stroke="#ffffff" stroke-opacity="100%" opacity="89%"></circle><circle cx="275" cy="121" r="936" stroke-width="1" stroke-dasharray="0px 0px" fill="none" stroke="#ffffff" stroke-opacity="100%" opacity="89%"></circle><circle cx="275" cy="121" r="917" stroke-width="1" stroke-dasharray="0px 0px" fill="none" stroke="#ffffff" stroke-opacity="100%" opacity="89%"></circle><circle cx="275" cy="121" r="898" stroke-width="1" stroke-dasharray="0px 0px" fill="none" stroke="#ffffff" stroke-opacity="100%" opacity="89%"></circle><circle cx="275" cy="121" r="879" stroke-width="1" stroke-dasharray="0px 0px" fill="none" stroke="#ffffff" stroke-opacity="100%" opacity="89%"></circle><circle cx="275" cy="121" r="860" stroke-width="1" stroke-dasharray="0px 0px" fill="none" stroke="#ffffff" stroke-opacity="100%" opacity="89%"></circle><circle cx="275" cy="121" r="841" stroke-width="1" stroke-dasharray="0px 0px" fill="none" stroke="#ffffff" stroke-opacity="100%" opacity="89%"></circle><circle cx="275" cy="121" r="822" stroke-width="1" stroke-dasharray="0px 0px" fill="none" stroke="#ffffff" stroke-opacity="100%" opacity="89%"></circle><circle cx="275" cy="121" r="803" stroke-width="1" stroke-dasharray="0px 0px" fill="none" stroke="#ffffff" stroke-opacity="100%" opacity="89%"></circle><circle cx="275" cy="121" r="784" stroke-width="1" stroke-dasharray="0px 0px" fill="none" stroke="#ffffff" stroke-opacity="100%" opacity="89%"></circle><circle cx="275" cy="121" r="765" stroke-width="1" stroke-dasharray="0px 0px" fill="none" stroke="#ffffff" stroke-opacity="100%" opacity="89%"></circle><circle cx="275" cy="121" r="746" stroke-width="1" stroke-dasharray="0px 0px" fill="none" stroke="#ffffff" stroke-opacity="100%" opacity="89%"></circle><circle cx="275" cy="121" r="727" stroke-width="1" stroke-dasharray="0px 0px" fill="none" stroke="#ffffff" stroke-opacity="100%" opacity="89%"></circle><circle cx="275" cy="121" r="708" stroke-width="1" stroke-dasharray="0px 0px" fill="none" stroke="#ffffff" stroke-opacity="100%" opacity="89%"></circle><circle cx="275" cy="121" r="689" stroke-width="1" stroke-dasharray="0px 0px" fill="none" stroke="#ffffff" stroke-opacity="100%" opacity="89%"></circle><circle cx="275" cy="121" r="670" stroke-width="1" stroke-dasharray="0px 0px" fill="none" stroke="#ffffff" stroke-opacity="100%" opacity="89%"></circle><circle cx="275" cy="121" r="651" stroke-width="1" stroke-dasharray="0px 0px" fill="none" stroke="#ffffff" stroke-opacity="100%" opacity="89%"></circle><circle cx="275" cy="121" r="632" stroke-width="1" stroke-dasharray="0px 0px" fill="none" stroke="#ffffff" stroke-opacity="100%" opacity="89%"></circle><circle cx="275" cy="121" r="613" stroke-width="1" stroke-dasharray="0px 0px" fill="none" stroke="#ffffff" stroke-opacity="100%" opacity="89%"></circle><circle cx="275" cy="121" r="594" stroke-width="1" stroke-dasharray="0px 0px" fill="none" stroke="#ffffff" stroke-opacity="100%" opacity="89%"></circle><circle cx="275" cy="121" r="575" stroke-width="1" stroke-dasharray="0px 0px" fill="none" stroke="#ffffff" stroke-opacity="100%" opacity="89%"></circle><circle cx="275" cy="121" r="556" stroke-width="1" stroke-dasharray="0px 0px" fill="none" stroke="#ffffff" stroke-opacity="100%" opacity="89%"></circle><circle cx="275" cy="121" r="537" stroke-width="1" stroke-dasharray="0px 0px" fill="none" stroke="#ffffff" stroke-opacity="100%" opacity="89%"></circle><circle cx="275" cy="121" r="518" stroke-width="1" stroke-dasharray="0px 0px" fill="none" stroke="#ffffff" stroke-opacity="100%" opacity="89%"></circle><circle cx="275" cy="121" r="499" stroke-width="1" stroke-dasharray="0px 0px" fill="none" stroke="#ffffff" stroke-opacity="100%" opacity="89%"></circle><circle cx="275" cy="121" r="480" stroke-width="1" stroke-dasharray="0px 0px" fill="none" stroke="#ffffff" stroke-opacity="100%" opacity="89%"></circle><circle cx="275" cy="121" r="461" stroke-width="1" stroke-dasharray="0px 0px" fill="none" stroke="#ffffff" stroke-opacity="100%" opacity="89%"></circle><circle cx="275" cy="121" r="442" stroke-width="1" stroke-dasharray="0px 0px" fill="none" stroke="#ffffff" stroke-opacity="100%" opacity="89%"></circle><circle cx="275" cy="121" r="423" stroke-width="1" stroke-dasharray="0px 0px" fill="none" stroke="#ffffff" stroke-opacity="100%" opacity="89%"></circle><circle cx="275" cy="121" r="404" stroke-width="1" stroke-dasharray="0px 0px" fill="none" stroke="#ffffff" stroke-opacity="100%" opacity="89%"></circle><circle cx="275" cy="121" r="385" stroke-width="1" stroke-dasharray="0px 0px" fill="none" stroke="#ffffff" stroke-opacity="100%" opacity="89%"></circle><circle cx="275" cy="121" r="366" stroke-width="1" stroke-dasharray="0px 0px" fill="none" stroke="#ffffff" stroke-opacity="100%" opacity="89%"></circle><circle cx="275" cy="121" r="347" stroke-width="1" stroke-dasharray="0px 0px" fill="none" stroke="#ffffff" stroke-opacity="100%" opacity="89%"></circle><circle cx="275" cy="121" r="328" stroke-width="1" stroke-dasharray="0px 0px" fill="none" stroke="#ffffff" stroke-opacity="100%" opacity="89%"></circle><circle cx="275" cy="121" r="309" stroke-width="1" stroke-dasharray="0px 0px" fill="none" stroke="#ffffff" stroke-opacity="100%" opacity="89%"></circle><circle cx="275" cy="121" r="290" stroke-width="1" stroke-dasharray="0px 0px" fill="none" stroke="#ffffff" stroke-opacity="100%" opacity="89%"></circle><circle cx="275" cy="121" r="271" stroke-width="1" stroke-dasharray="0px 0px" fill="none" stroke="#ffffff" stroke-opacity="100%" opacity="89%"></circle><circle cx="275" cy="121" r="252" stroke-width="1" stroke-dasharray="0px 0px" fill="none" stroke="#ffffff" stroke-opacity="100%" opacity="89%"></circle><circle cx="275" cy="121" r="233" stroke-width="1" stroke-dasharray="0px 0px" fill="none" stroke="#ffffff" stroke-opacity="100%" opacity="89%"></circle><circle cx="275" cy="121" r="214" stroke-width="1" stroke-dasharray="0px 0px" fill="none" stroke="#ffffff" stroke-opacity="100%" opacity="89%"></circle><circle cx="275" cy="121" r="195" stroke-width="1" stroke-dasharray="0px 0px" fill="none" stroke="#ffffff" stroke-opacity="100%" opacity="89%"></circle><circle cx="275" cy="121" r="176" stroke-width="1" stroke-dasharray="0px 0px" fill="none" stroke="#ffffff" stroke-opacity="100%" opacity="89%"></circle><circle cx="275" cy="121" r="157" stroke-width="1" stroke-dasharray="0px 0px" fill="none" stroke="#ffffff" stroke-opacity="100%" opacity="89%"></circle><circle cx="275" cy="121" r="138" stroke-width="1" stroke-dasharray="0px 0px" fill="none" stroke="#ffffff" stroke-opacity="100%" opacity="89%"></circle><circle cx="275" cy="121" r="119" stroke-width="1" stroke-dasharray="0px 0px" fill="none" stroke="#ffffff" stroke-opacity="100%" opacity="89%"></circle><circle cx="275" cy="121" r="100" stroke-width="1" stroke-dasharray="0px 0px" fill="none" stroke="#ffffff" stroke-opacity="100%" opacity="89%"></circle><circle cx="275" cy="121" r="81" stroke-width="1" stroke-dasharray="0px 0px" fill="none" stroke="#ffffff" stroke-opacity="100%" opacity="89%"></circle><circle cx="275" cy="121" r="62" stroke-width="1" stroke-dasharray="0px 0px" fill="none" stroke="#ffffff" stroke-opacity="100%" opacity="89%"></circle><circle cx="275" cy="121" r="43" stroke-width="1" stroke-dasharray="0px 0px" fill="none" stroke="#ffffff" stroke-opacity="100%" opacity="89%"></circle><circle cx="275" cy="121" r="24" stroke-width="1" stroke-dasharray="0px 0px" fill="none" stroke="#ffffff" stroke-opacity="100%" opacity="89%"></circle><style>.voyager { font: 20px monospace; fill: #ffffff; }</style><text x="269.5" y="126.5" class="voyager" >+</text><rect x="0" y="0" width="1200" height="1200" style="stroke:#fcfceb; fill: none;stroke-width:80px"/><g id="triptych"><line x1="400.0" y1="0" x2="400.0" y2="1200" style="stroke:#fcfceb;stroke-width:10px;" /><line x1="800.0" y1="0" x2="800.0" y2="1200" style="stroke:#fcfceb;stroke-width:10px;" /></g><rect x="0" y="0" width="1200" height="1200" style="stroke: #000000; fill: none;stroke-width:1px"/><style>.label { font: 20px monospace; fill: #999999; }</style><g id="label"><text x="40" y="1187" class="label" >VOYAGER 1: 1977-10-3 LOCATION: 0.6000 16.70 6.7829 333.83 301.49</text></g><style>.top_label { font: 16px monospace; fill: #999999; }</style><g id="top_label"><text x="40" y="27" class="top_label" >SOLAR WIND: 0.5670 0.5670 -0.9260 0.1280 1.0933 6.020 5.940 10.0 135.5 TRIAXIAL FLUXGATE MAGNETOMETER</text></g></svg>